<svg width="237" height="276" viewBox="0 0 237 276" fill="none" xmlns="http://www.w3.org/2000/svg">
<path d="M134.5 16C134.5 7.16344 127.337 0 118.5 0C109.663 0 102.5 7.16344 102.5 16L134.5 16ZM107.186 271.314C113.435 277.562 123.565 277.562 129.814 271.314L231.637 169.49C237.885 163.242 237.885 153.111 231.637 146.863C225.389 140.615 215.258 140.615 209.01 146.863L118.5 237.373L27.9903 146.863C21.7419 140.615 11.6113 140.615 5.36292 146.863C-0.885474 153.111 -0.885474 163.242 5.36292 169.49L107.186 271.314ZM102.5 16L102.5 260H134.5V16L102.5 16Z" fill="black"/>
</svg>
