<svg id="visual" viewBox="0 0 960 540" width="960" height="540" xmlns="http://www.w3.org/2000/svg" xmlns:xlink="http://www.w3.org/1999/xlink" version="1.1"><rect x="0" y="0" width="960" height="540" fill="#001027"></rect><path d="M0 208L32 207.7C64 207.3 128 206.7 192 224.2C256 241.7 320 277.3 384 291.3C448 305.3 512 297.7 576 305.2C640 312.7 704 335.3 768 342.5C832 349.7 896 341.3 928 337.2L960 333L960 0L928 0C896 0 832 0 768 0C704 0 640 0 576 0C512 0 448 0 384 0C320 0 256 0 192 0C128 0 64 0 32 0L0 0Z" fill="#001b41"></path><path d="M0 165L32 174.7C64 184.3 128 203.7 192 211C256 218.3 320 213.7 384 212C448 210.3 512 211.7 576 227.8C640 244 704 275 768 282.5C832 290 896 274 928 266L960 258L960 0L928 0C896 0 832 0 768 0C704 0 640 0 576 0C512 0 448 0 384 0C320 0 256 0 192 0C128 0 64 0 32 0L0 0Z" fill="#434c6d"></path><path d="M0 213L32 196.7C64 180.3 128 147.7 192 136.3C256 125 320 135 384 153.7C448 172.3 512 199.7 576 207.2C640 214.7 704 202.3 768 200.8C832 199.3 896 208.7 928 213.3L960 218L960 0L928 0C896 0 832 0 768 0C704 0 640 0 576 0C512 0 448 0 384 0C320 0 256 0 192 0C128 0 64 0 32 0L0 0Z" fill="#7f839b"></path><path d="M0 158L32 148.8C64 139.7 128 121.3 192 111C256 100.7 320 98.3 384 97.8C448 97.3 512 98.7 576 111.3C640 124 704 148 768 149.2C832 150.3 896 128.7 928 117.8L960 107L960 0L928 0C896 0 832 0 768 0C704 0 640 0 576 0C512 0 448 0 384 0C320 0 256 0 192 0C128 0 64 0 32 0L0 0Z" fill="#bdbfcc"></path><path d="M0 71L32 77.3C64 83.7 128 96.3 192 93.8C256 91.3 320 73.7 384 69.2C448 64.7 512 73.3 576 69.5C640 65.7 704 49.3 768 48.5C832 47.7 896 62.3 928 69.7L960 77L960 0L928 0C896 0 832 0 768 0C704 0 640 0 576 0C512 0 448 0 384 0C320 0 256 0 192 0C128 0 64 0 32 0L0 0Z" fill="#ffffff"></path></svg>