<?xml version="1.0" encoding="utf-8"?>
<!-- Generator: Adobe Illustrator 26.0.1, SVG Export Plug-In . SVG Version: 6.00 Build 0)  -->
<svg version="1.1" id="emoji" xmlns="http://www.w3.org/2000/svg" xmlns:xlink="http://www.w3.org/1999/xlink" x="0px" y="0px"
	 viewBox="0 0 72 72" style="enable-background:new 0 0 72 72;" xml:space="preserve">
<style type="text/css">
	.st0{fill:#FFFFFF;}
	.st1{fill:#5E57A6;}
	.st2{fill:#D0CFCE;}
	.st3{fill:none;}
	.st4{fill:none;stroke:#000000;stroke-width:2.0001;stroke-linecap:round;stroke-linejoin:round;stroke-miterlimit:10.0005;}
	.st5{fill:none;stroke:#000000;stroke-width:2;stroke-linecap:round;stroke-linejoin:round;stroke-miterlimit:10;}
</style>
<g id="color">
	<path class="st0" d="M4,27.4l0,42.8l42.4,0l21.5-16.1c0-0.1,0.3-5.3,0.3-5.3l0-21.4L4,27.4z"/>
	<path class="st1" d="M3.2,27.6l65-0.3l0-21.4c0,0-8.8-1.3-8-1.3h-4.8l0.1,7.7c2.3,0.6,2.9,4.1,2.9,4.1c0,2.9-3.6,3.4-3.6,3.4
		c-2.5-0.5-3.3-1.7-3.3-3.8c0-1.4,0.1-1.8,1.1-2.8c0.7-0.7,0.8-0.8,1.8-1l0-7.7h-4.7c0.3,0-27.6,0-26.8,0h-4.9l0.1,7.7
		c2.3,0.6,3.1,1.1,3,3.6c0,2.9-3.6,4.4-3.6,4.4c-3,0-4-1.4-4-4.3c0-1.4,1.2-2.5,2.2-3.5c0.7-0.7,0.9-1.1,1.8-1.3L17,4.7h-5
		C12.3,4.7,4,6,4,6L3.2,27.6z"/>
	<path class="st2" d="M68.2,54.1H45.7c0,0-1.2,8.2-1.3,7.5v7.3l2,1.3L68.2,54.1z"/>
	<line class="st3" x1="17.4" y1="1.4" x2="17.4" y2="15.2"/>
	<line class="st3" x1="54.9" y1="1.4" x2="54.9" y2="15.2"/>
</g>
<g id="line">
	<ellipse class="st4" cx="17.4" cy="16.3" rx="4" ry="4"/>
	<line class="st5" x1="22.7" y1="6" x2="49.6" y2="6"/>
	<polyline class="st5" points="60.2,6 68.2,6 68.2,27.4 4,27.4 4,6 12,6 	"/>
	<line class="st5" x1="17.4" y1="1.4" x2="17.4" y2="15.2"/>
	<ellipse class="st4" cx="54.8" cy="16.3" rx="4" ry="4"/>
	<line class="st5" x1="54.9" y1="1.4" x2="54.9" y2="15.2"/>
	<path class="st5" d="M33.9,40.8c0.7-3.4,3.7-6,7.4-6l0,0c2.1,0,4,0.8,5.3,2.2c2.1,2.1,1.9,5.6-0.1,7.9L33.7,59.3h6.4"/>
	<polyline class="st5" points="19.1,39.8 25.8,34.7 25.8,59.3 	"/>
	<polyline class="st5" points="4,27.4 4,70.2 46.3,70.2 68.2,54.1 68.2,27.4 	"/>
	<polyline class="st5" points="67.9,54.1 45.7,54.1 45.7,61.4 	"/>
</g>
</svg>
