<svg width="572" height="380" viewBox="0 0 572 380" fill="none" xmlns="http://www.w3.org/2000/svg">
<g clip-path="url(#clip0_12_143)">
<rect width="572" height="380" fill="white"/>
<rect width="572" height="380" fill="white"/>
<rect x="29" y="132" width="152" height="7" fill="#D9D9D9"/>
<path d="M30.92 144.595H29.016V143.955H33.584V144.595H31.68V149.667H30.92V144.595ZM36.7954 149.667H36.1554V149.011H36.1394C35.862 149.507 35.414 149.755 34.7954 149.755C34.278 149.755 33.91 149.624 33.6914 149.363C33.478 149.101 33.3714 148.731 33.3714 148.251V145.531H34.0514V148.331C34.0514 148.587 34.126 148.789 34.2754 148.939C34.4247 149.088 34.63 149.163 34.8914 149.163C35.2914 149.163 35.5954 149.045 35.8034 148.811C36.0114 148.571 36.1154 148.256 36.1154 147.867V145.531H36.7954V149.667ZM39.1127 149.211C39.358 149.211 39.5954 149.152 39.8247 149.035C40.2194 148.848 40.4167 148.539 40.4167 148.107V147.539C40.246 147.645 40.0007 147.717 39.6807 147.755L39.2567 147.811C39.006 147.843 38.814 147.896 38.6807 147.971C38.4674 148.088 38.3607 148.283 38.3607 148.555C38.3607 148.752 38.4327 148.912 38.5767 149.035C38.7207 149.152 38.8994 149.211 39.1127 149.211ZM38.9447 147.275L40.0647 147.131C40.2247 147.109 40.3314 147.043 40.3847 146.931C40.4167 146.867 40.4327 146.776 40.4327 146.659C40.4327 146.205 40.1047 145.979 39.4487 145.979C39.0754 145.979 38.814 146.077 38.6647 146.275C38.5794 146.376 38.5234 146.539 38.4967 146.763H37.8407C37.846 146.245 38.0114 145.885 38.3367 145.683C38.6674 145.48 39.0434 145.379 39.4647 145.379C39.9554 145.379 40.3527 145.475 40.6567 145.667C40.966 145.848 41.1207 146.139 41.1207 146.539V148.947C41.1207 149.027 41.1367 149.088 41.1687 149.131C41.2007 149.168 41.262 149.187 41.3527 149.187C41.3794 149.187 41.4567 149.181 41.5847 149.171V149.683C41.4194 149.731 41.2567 149.755 41.0967 149.755C40.8567 149.755 40.6807 149.669 40.5687 149.499C40.5154 149.408 40.4754 149.28 40.4487 149.115C40.294 149.312 40.0807 149.477 39.8087 149.611C39.542 149.744 39.254 149.811 38.9447 149.811C38.5607 149.811 38.2434 149.693 37.9927 149.459C37.7474 149.219 37.6247 148.923 37.6247 148.571C37.6247 148.192 37.742 147.893 37.9767 147.675C38.2114 147.456 38.534 147.323 38.9447 147.275ZM39.1127 143.947H39.8567L40.6487 145.075H40.0087L39.4807 144.331L38.9607 145.075H38.3207L39.1127 143.947ZM37.9687 143.195L38.6807 144.323H38.1447L37.0967 143.195H37.9687ZM42.262 145.531H42.902V146.187H42.918C43.1953 145.685 43.6433 145.435 44.262 145.435C44.774 145.435 45.1393 145.568 45.358 145.835C45.5767 146.096 45.686 146.467 45.686 146.947V149.667H45.006V146.867C45.006 146.611 44.9313 146.408 44.782 146.259C44.6327 146.109 44.4273 146.035 44.166 146.035C43.766 146.035 43.462 146.155 43.254 146.395C43.046 146.629 42.942 146.941 42.942 147.331V149.667H42.262V145.531ZM48.9579 143.955H49.6379V146.091H49.6539C49.8672 145.653 50.3072 145.435 50.9739 145.435C51.5819 145.435 52.0512 145.643 52.3819 146.059C52.7125 146.475 52.8779 146.992 52.8779 147.611C52.8779 148.235 52.7152 148.749 52.3899 149.155C52.0645 149.555 51.5979 149.755 50.9899 149.755C50.7392 149.755 50.4859 149.704 50.2299 149.603C49.9792 149.501 49.7872 149.339 49.6539 149.115H49.6379V149.667H48.9579V143.955ZM52.1579 147.563C52.1579 147.141 52.0485 146.781 51.8299 146.483C51.6112 146.184 51.2939 146.035 50.8779 146.035C50.4512 146.035 50.1339 146.187 49.9259 146.491C49.7179 146.795 49.6139 147.163 49.6139 147.595C49.6139 148.037 49.7205 148.411 49.9339 148.715C50.1525 149.013 50.4805 149.163 50.9179 149.163C51.3499 149.163 51.6645 149.011 51.8619 148.707C52.0592 148.397 52.1579 148.016 52.1579 147.563ZM54.9721 149.211C55.2174 149.211 55.4547 149.152 55.6841 149.035C56.0787 148.848 56.2761 148.539 56.2761 148.107V147.539C56.1054 147.645 55.8601 147.717 55.5401 147.755L55.1161 147.811C54.8654 147.843 54.6734 147.896 54.5401 147.971C54.3267 148.088 54.2201 148.283 54.2201 148.555C54.2201 148.752 54.2921 148.912 54.4361 149.035C54.5801 149.152 54.7587 149.211 54.9721 149.211ZM54.8041 147.275L55.9241 147.131C56.0841 147.109 56.1907 147.043 56.2441 146.931C56.2761 146.867 56.2921 146.776 56.2921 146.659C56.2921 146.205 55.9641 145.979 55.3081 145.979C54.9347 145.979 54.6734 146.077 54.5241 146.275C54.4387 146.376 54.3827 146.539 54.3561 146.763H53.7001C53.7054 146.245 53.8707 145.885 54.1961 145.683C54.5267 145.48 54.9027 145.379 55.3241 145.379C55.8147 145.379 56.2121 145.475 56.5161 145.667C56.8254 145.848 56.9801 146.139 56.9801 146.539V148.947C56.9801 149.027 56.9961 149.088 57.0281 149.131C57.0601 149.168 57.1214 149.187 57.2121 149.187C57.2387 149.187 57.3161 149.181 57.4441 149.171V149.683C57.2787 149.731 57.1161 149.755 56.9561 149.755C56.7161 149.755 56.5401 149.669 56.4281 149.499C56.3747 149.408 56.3347 149.28 56.3081 149.115C56.1534 149.312 55.9401 149.477 55.6681 149.611C55.4014 149.744 55.1134 149.811 54.8041 149.811C54.4201 149.811 54.1027 149.693 53.8521 149.459C53.6067 149.219 53.4841 148.923 53.4841 148.571C53.4841 148.192 53.6014 147.893 53.8361 147.675C54.0707 147.456 54.3934 147.323 54.8041 147.275ZM54.2841 143.859H54.6761C54.7134 144.024 54.7747 144.152 54.8601 144.243C55.0147 144.397 55.2414 144.475 55.5401 144.475C55.8281 144.475 56.0414 144.397 56.1801 144.243C56.2654 144.152 56.3267 144.024 56.3641 143.859H56.7481C56.6521 144.579 56.2254 144.939 55.4681 144.939C55.0041 144.939 54.6734 144.784 54.4761 144.475C54.3747 144.315 54.3107 144.109 54.2841 143.859ZM55.8441 142.683H56.7161L55.6681 143.819H55.1321L55.8441 142.683ZM59.0654 145.531H59.8894V146.131H59.0654V148.699C59.0654 148.859 59.0974 148.96 59.1614 149.003C59.2254 149.045 59.364 149.067 59.5774 149.067H59.8894V149.667H59.3694C59.0014 149.667 58.7454 149.608 58.6014 149.491C58.4574 149.368 58.3854 149.125 58.3854 148.763V146.131H57.6814V145.531H58.3854V144.291H59.0654V145.531ZM64.5274 145.003V144.579H65.8874V143.955H66.5674V144.579H67.2554V145.003H66.5674V149.667H65.8874V149.107H65.8714C65.658 149.544 65.218 149.763 64.5514 149.763C63.9434 149.763 63.474 149.555 63.1434 149.139C62.8127 148.723 62.6474 148.205 62.6474 147.587C62.6474 146.968 62.81 146.456 63.1354 146.051C63.466 145.64 63.9327 145.435 64.5354 145.435C64.7807 145.435 65.0314 145.488 65.2874 145.595C65.5434 145.696 65.738 145.859 65.8714 146.083H65.8874V145.003H64.5274ZM63.3674 147.635C63.3674 148.056 63.4767 148.416 63.6954 148.715C63.914 149.013 64.2314 149.163 64.6474 149.163C65.074 149.163 65.3914 149.011 65.5994 148.707C65.8074 148.403 65.9114 148.035 65.9114 147.603C65.9114 147.16 65.802 146.789 65.5834 146.491C65.37 146.187 65.0447 146.035 64.6074 146.035C64.1754 146.035 63.8607 146.189 63.6634 146.499C63.466 146.803 63.3674 147.181 63.3674 147.635ZM68.9486 149.211C69.194 149.211 69.4313 149.152 69.6606 149.035C70.0553 148.848 70.2526 148.539 70.2526 148.107V147.539C70.082 147.645 69.8366 147.717 69.5166 147.755L69.0926 147.811C68.842 147.843 68.65 147.896 68.5166 147.971C68.3033 148.088 68.1966 148.283 68.1966 148.555C68.1966 148.752 68.2686 148.912 68.4126 149.035C68.5566 149.152 68.7353 149.211 68.9486 149.211ZM68.7806 147.275L69.9006 147.131C70.0606 147.109 70.1673 147.043 70.2206 146.931C70.2526 146.867 70.2686 146.776 70.2686 146.659C70.2686 146.205 69.9406 145.979 69.2846 145.979C68.9113 145.979 68.65 146.077 68.5006 146.275C68.4153 146.376 68.3593 146.539 68.3326 146.763H67.6766C67.682 146.245 67.8473 145.885 68.1726 145.683C68.5033 145.48 68.8793 145.379 69.3006 145.379C69.7913 145.379 70.1886 145.475 70.4926 145.667C70.802 145.848 70.9566 146.139 70.9566 146.539V148.947C70.9566 149.027 70.9726 149.088 71.0046 149.131C71.0366 149.168 71.098 149.187 71.1886 149.187C71.2153 149.187 71.2926 149.181 71.4206 149.171V149.683C71.2553 149.731 71.0926 149.755 70.9326 149.755C70.6926 149.755 70.5166 149.669 70.4046 149.499C70.3513 149.408 70.3113 149.28 70.2846 149.115C70.13 149.312 69.9166 149.477 69.6446 149.611C69.378 149.744 69.09 149.811 68.7806 149.811C68.3966 149.811 68.0793 149.693 67.8286 149.459C67.5833 149.219 67.4606 148.923 67.4606 148.571C67.4606 148.192 67.578 147.893 67.8126 147.675C68.0473 147.456 68.37 147.323 68.7806 147.275ZM68.9486 143.947H69.6926L70.4846 145.075H69.8446L69.3166 144.331L68.7966 145.075H68.1566L68.9486 143.947ZM67.8046 143.195L68.5166 144.323H67.9806L66.9326 143.195H67.8046ZM75.5219 149.667H74.8819V149.011H74.8659C74.5886 149.507 74.1406 149.755 73.5219 149.755C73.0046 149.755 72.6366 149.624 72.4179 149.363C72.2046 149.101 72.0979 148.731 72.0979 148.251V145.531H72.7779V148.331C72.7779 148.587 72.8526 148.789 73.0019 148.939C73.1513 149.088 73.3566 149.163 73.6179 149.163C74.0179 149.163 74.3219 149.045 74.5299 148.811C74.7379 148.571 74.8419 148.256 74.8419 147.867V145.531H75.5219V149.667ZM78.7698 143.955H79.4498V146.139H79.4658C79.5618 145.904 79.7325 145.728 79.9778 145.611C80.2285 145.493 80.4925 145.435 80.7698 145.435C81.2818 145.435 81.6471 145.568 81.8658 145.835C82.0845 146.096 82.1938 146.467 82.1938 146.947V149.667H81.5138V146.867C81.5138 146.611 81.4391 146.408 81.2898 146.259C81.1405 146.109 80.9351 146.035 80.6738 146.035C80.2738 146.035 79.9698 146.155 79.7618 146.395C79.5538 146.629 79.4498 146.941 79.4498 147.331V149.667H78.7698V143.955ZM86.0951 147.507C86.0951 147.128 86.0338 146.811 85.9111 146.555C85.7085 146.171 85.3671 145.979 84.8871 145.979C84.4605 145.979 84.1458 146.144 83.9431 146.475C83.7511 146.8 83.6551 147.195 83.6551 147.659C83.6551 148.101 83.7511 148.472 83.9431 148.771C84.1405 149.064 84.4525 149.211 84.8791 149.211C85.3485 149.211 85.6658 149.035 85.8311 148.683C86.0071 148.331 86.0951 147.939 86.0951 147.507ZM86.8311 147.491C86.8311 148.163 86.6658 148.72 86.3351 149.163C86.0098 149.6 85.5031 149.819 84.8151 149.819C84.2391 149.819 83.7805 149.624 83.4391 149.235C83.1031 148.845 82.9351 148.323 82.9351 147.667C82.9351 146.957 83.1138 146.397 83.4711 145.987C83.8338 145.571 84.3111 145.363 84.9031 145.363C85.4365 145.363 85.8925 145.544 86.2711 145.907C86.6445 146.264 86.8311 146.792 86.8311 147.491ZM84.6151 150.987V150.171H85.3431V150.987H84.6151ZM90.4684 146.859C90.3564 146.309 90.0151 146.035 89.4444 146.035C88.9911 146.035 88.6631 146.187 88.4604 146.491C88.2578 146.795 88.1564 147.181 88.1564 147.651C88.1564 148.077 88.2551 148.437 88.4524 148.731C88.6551 149.019 88.9591 149.163 89.3644 149.163C90.0311 149.163 90.4098 148.827 90.5004 148.155H91.1964C91.1218 148.672 90.9298 149.069 90.6204 149.347C90.3111 149.619 89.8951 149.755 89.3724 149.755C88.7538 149.755 88.2764 149.565 87.9404 149.187C87.6044 148.803 87.4364 148.291 87.4364 147.651C87.4364 147 87.6044 146.469 87.9404 146.059C88.2764 145.643 88.7591 145.435 89.3884 145.435C89.8791 145.435 90.2871 145.555 90.6124 145.795C90.9378 146.029 91.1244 146.384 91.1724 146.859H90.4684ZM94.2239 143.955H94.9039V147.339L96.7919 145.531H97.7039L96.0639 147.035L97.8239 149.667H96.9599L95.5439 147.507L94.9039 148.099V149.667H94.2239V143.955ZM101.756 145.531L99.9563 150.219C99.791 150.629 99.623 150.915 99.4523 151.075C99.2816 151.24 99.0496 151.323 98.7563 151.323C98.5696 151.323 98.4123 151.299 98.2843 151.251V150.627C98.487 150.691 98.6203 150.723 98.6843 150.723C98.9296 150.723 99.1163 150.597 99.2443 150.347L99.5243 149.643L97.8843 145.531H98.6523L99.8603 148.915H99.8763L101.036 145.531H101.756ZM99.7083 144.955L98.6603 143.811H99.5323L100.22 144.955H99.7083ZM103.372 146.419H102.484V145.531H103.372V146.419ZM102.484 148.779H103.372V149.667H102.484V148.779ZM107.729 145.531H108.553V146.131H107.729V148.699C107.729 148.859 107.761 148.96 107.825 149.003C107.889 149.045 108.028 149.067 108.241 149.067H108.553V149.667H108.033C107.665 149.667 107.409 149.608 107.265 149.491C107.121 149.368 107.049 149.125 107.049 148.763V146.131H106.345V145.531H107.049V144.291H107.729V145.531ZM112.733 149.667H112.093V149.011H112.077C111.8 149.507 111.352 149.755 110.733 149.755C110.216 149.755 109.848 149.624 109.629 149.363C109.416 149.101 109.309 148.731 109.309 148.251V145.531H109.989V148.331C109.989 148.587 110.064 148.789 110.213 148.939C110.362 149.088 110.568 149.163 110.829 149.163C111.229 149.163 111.533 149.045 111.741 148.811C111.949 148.571 112.053 148.256 112.053 147.867V145.531H112.733V149.667ZM115.05 149.211C115.296 149.211 115.533 149.152 115.762 149.035C116.157 148.848 116.354 148.539 116.354 148.107V147.539C116.184 147.645 115.938 147.717 115.618 147.755L115.194 147.811C114.944 147.843 114.752 147.896 114.618 147.971C114.405 148.088 114.298 148.283 114.298 148.555C114.298 148.752 114.37 148.912 114.514 149.035C114.658 149.152 114.837 149.211 115.05 149.211ZM114.882 147.275L116.002 147.131C116.162 147.109 116.269 147.043 116.322 146.931C116.354 146.867 116.37 146.776 116.37 146.659C116.37 146.205 116.042 145.979 115.386 145.979C115.013 145.979 114.752 146.077 114.602 146.275C114.517 146.376 114.461 146.539 114.434 146.763H113.778C113.784 146.245 113.949 145.885 114.274 145.683C114.605 145.48 114.981 145.379 115.402 145.379C115.893 145.379 116.29 145.475 116.594 145.667C116.904 145.848 117.058 146.139 117.058 146.539V148.947C117.058 149.027 117.074 149.088 117.106 149.131C117.138 149.168 117.2 149.187 117.29 149.187C117.317 149.187 117.394 149.181 117.522 149.171V149.683C117.357 149.731 117.194 149.755 117.034 149.755C116.794 149.755 116.618 149.669 116.506 149.499C116.453 149.408 116.413 149.28 116.386 149.115C116.232 149.312 116.018 149.477 115.746 149.611C115.48 149.744 115.192 149.811 114.882 149.811C114.498 149.811 114.181 149.693 113.93 149.459C113.685 149.219 113.562 148.923 113.562 148.571C113.562 148.192 113.68 147.893 113.914 147.675C114.149 147.456 114.472 147.323 114.882 147.275ZM115.05 143.947H115.794L116.586 145.075H115.946L115.418 144.331L114.898 145.075H114.258L115.05 143.947ZM113.906 143.195L114.618 144.323H114.082L113.034 143.195H113.906ZM118.2 145.531H118.84V146.187H118.856C119.133 145.685 119.581 145.435 120.2 145.435C120.712 145.435 121.077 145.568 121.296 145.835C121.514 146.096 121.624 146.467 121.624 146.947V149.667H120.944V146.867C120.944 146.611 120.869 146.408 120.72 146.259C120.57 146.109 120.365 146.035 120.104 146.035C119.704 146.035 119.4 146.155 119.192 146.395C118.984 146.629 118.88 146.941 118.88 147.331V149.667H118.2V145.531ZM127.207 149.667H126.527V145.603H125.055V145.059C126.021 145.059 126.565 144.704 126.687 143.995H127.207V149.667ZM132.663 151.243C132.247 150.592 131.933 149.973 131.719 149.387C131.511 148.795 131.407 148.168 131.407 147.507C131.407 146.867 131.514 146.227 131.727 145.587C131.941 144.947 132.253 144.357 132.663 143.819H133.183C132.479 144.933 132.127 146.163 132.127 147.507C132.127 148.861 132.479 150.107 133.183 151.243H132.663ZM134.11 147.635C134.11 148.056 134.219 148.416 134.438 148.715C134.656 149.013 134.974 149.163 135.39 149.163C135.816 149.163 136.134 149.011 136.342 148.707C136.55 148.403 136.654 148.035 136.654 147.603C136.654 147.16 136.544 146.789 136.326 146.491C136.112 146.187 135.787 146.035 135.35 146.035C134.918 146.035 134.603 146.189 134.406 146.499C134.208 146.803 134.11 147.181 134.11 147.635ZM137.31 149.667H136.63V149.107H136.614C136.4 149.539 135.96 149.755 135.294 149.755C134.686 149.755 134.216 149.549 133.886 149.139C133.555 148.723 133.39 148.205 133.39 147.587C133.39 146.968 133.552 146.456 133.878 146.051C134.203 145.64 134.67 145.435 135.278 145.435C135.523 145.435 135.774 145.488 136.03 145.595C136.286 145.696 136.48 145.859 136.614 146.083H136.63V143.955H137.31V149.667ZM138.852 147.635C138.852 148.056 138.961 148.416 139.18 148.715C139.398 149.013 139.716 149.163 140.132 149.163C140.558 149.163 140.876 149.011 141.084 148.707C141.292 148.403 141.396 148.035 141.396 147.603C141.396 147.16 141.286 146.789 141.068 146.491C140.854 146.187 140.529 146.035 140.092 146.035C139.66 146.035 139.345 146.189 139.148 146.499C138.95 146.803 138.852 147.181 138.852 147.635ZM142.052 149.667H141.372V149.107H141.356C141.142 149.539 140.702 149.755 140.036 149.755C139.428 149.755 138.958 149.549 138.628 149.139C138.297 148.723 138.132 148.205 138.132 147.587C138.132 146.968 138.294 146.456 138.62 146.051C138.945 145.64 139.412 145.435 140.02 145.435C140.265 145.435 140.516 145.488 140.772 145.595C141.028 145.696 141.222 145.859 141.356 146.083H141.372V143.955H142.052V149.667ZM144.81 143.819H145.394L143.026 149.795H142.45L144.81 143.819ZM145.762 145.531H146.402V146.139H146.418C146.727 145.669 147.173 145.435 147.754 145.435C148.357 145.435 148.735 145.669 148.89 146.139C149.183 145.669 149.615 145.435 150.186 145.435C151.103 145.435 151.562 145.835 151.562 146.635V149.667H150.882V146.955C150.882 146.661 150.826 146.435 150.714 146.275C150.602 146.115 150.391 146.035 150.082 146.035C149.746 146.035 149.482 146.131 149.29 146.323C149.098 146.515 149.002 146.771 149.002 147.091V149.667H148.322V146.955C148.322 146.661 148.263 146.435 148.146 146.275C148.034 146.115 147.834 146.035 147.546 146.035C147.194 146.035 146.922 146.157 146.73 146.403C146.538 146.643 146.442 146.872 146.442 147.091V149.667H145.762V145.531ZM152.582 145.531H153.222V146.139H153.238C153.548 145.669 153.993 145.435 154.574 145.435C155.177 145.435 155.556 145.669 155.71 146.139C156.004 145.669 156.436 145.435 157.006 145.435C157.924 145.435 158.382 145.835 158.382 146.635V149.667H157.702V146.955C157.702 146.661 157.646 146.435 157.534 146.275C157.422 146.115 157.212 146.035 156.902 146.035C156.566 146.035 156.302 146.131 156.11 146.323C155.918 146.515 155.822 146.771 155.822 147.091V149.667H155.142V146.955C155.142 146.661 155.084 146.435 154.966 146.275C154.854 146.115 154.654 146.035 154.366 146.035C154.014 146.035 153.742 146.157 153.55 146.403C153.358 146.643 153.262 146.872 153.262 147.091V149.667H152.582V145.531ZM161.115 143.819H161.699L159.331 149.795H158.755L161.115 143.819ZM163.691 150.211C163.525 150.621 163.357 150.907 163.187 151.067C163.021 151.232 162.789 151.315 162.491 151.315C162.304 151.315 162.147 151.291 162.019 151.243V150.619C162.221 150.683 162.355 150.715 162.419 150.715C162.664 150.715 162.851 150.589 162.979 150.339L163.259 149.643L161.619 145.531H162.387L163.595 148.915H163.611L164.771 145.531H165.491L163.691 150.211ZM167.691 150.211C167.525 150.621 167.357 150.907 167.187 151.067C167.021 151.232 166.789 151.315 166.491 151.315C166.304 151.315 166.147 151.291 166.019 151.243V150.619C166.221 150.683 166.355 150.715 166.419 150.715C166.664 150.715 166.851 150.589 166.979 150.339L167.259 149.643L165.619 145.531H166.387L167.595 148.915H167.611L168.771 145.531H169.491L167.691 150.211ZM171.691 150.211C171.525 150.621 171.357 150.907 171.187 151.067C171.021 151.232 170.789 151.315 170.491 151.315C170.304 151.315 170.147 151.291 170.019 151.243V150.619C170.221 150.683 170.355 150.715 170.419 150.715C170.664 150.715 170.851 150.589 170.979 150.339L171.259 149.643L169.619 145.531H170.387L171.595 148.915H171.611L172.771 145.531H173.491L171.691 150.211ZM175.691 150.211C175.525 150.621 175.357 150.907 175.187 151.067C175.021 151.232 174.789 151.315 174.491 151.315C174.304 151.315 174.147 151.291 174.019 151.243V150.619C174.221 150.683 174.355 150.715 174.419 150.715C174.664 150.715 174.851 150.589 174.979 150.339L175.259 149.643L173.619 145.531H174.387L175.595 148.915H175.611L176.771 145.531H177.491L175.691 150.211ZM177.483 151.243C178.181 150.133 178.531 148.907 178.531 147.563C178.531 146.219 178.181 144.971 177.483 143.819H177.995C178.405 144.459 178.717 145.077 178.931 145.675C179.144 146.272 179.251 146.901 179.251 147.563C179.251 148.203 179.144 148.843 178.931 149.483C178.717 150.117 178.405 150.704 177.995 151.243H177.483Z" fill="black"/>
<rect x="29" y="155.333" width="249" height="7" fill="#D9D9D9"/>
<rect x="29" y="165" width="305" height="7" fill="#D9D9D9"/>
<rect x="29" y="316" width="305" height="7" fill="#D9D9D9"/>
<rect x="29" y="327" width="305" height="7" fill="#D9D9D9"/>
<rect x="29" y="338" width="249" height="7" fill="#D9D9D9"/>
<rect x="29" y="349" width="249" height="7" fill="#D9D9D9"/>
<rect x="451" y="316" width="92" height="7" fill="#D9D9D9"/>
<rect x="474" y="349" width="46" height="7" fill="#D9D9D9"/>
<rect x="29" y="186" width="19" height="25" fill="#D9D9D9"/>
<rect x="29" y="186" width="19" height="25" stroke="black"/>
<rect x="48" y="186" width="59" height="25" fill="#D9D9D9"/>
<rect x="48" y="186" width="59" height="25" stroke="black"/>
<rect x="107" y="186" width="42" height="25" fill="#D9D9D9"/>
<rect x="107" y="186" width="42" height="25" stroke="black"/>
<rect x="149" y="186" width="59" height="25" fill="#D9D9D9"/>
<rect x="149" y="186" width="59" height="25" stroke="black"/>
<rect x="208" y="186" width="33" height="25" fill="#D9D9D9"/>
<rect x="208" y="186" width="33" height="25" stroke="black"/>
<rect x="241" y="186" width="42" height="25" fill="#D9D9D9"/>
<rect x="241" y="186" width="42" height="25" stroke="black"/>
<rect x="283" y="186" width="30" height="25" fill="#D9D9D9"/>
<rect x="283" y="186" width="30" height="25" stroke="black"/>
<rect x="313" y="186" width="88" height="25" fill="#D9D9D9"/>
<rect x="313" y="186" width="88" height="25" stroke="black"/>
<rect x="401" y="186" width="37" height="25" fill="#D9D9D9"/>
<rect x="401" y="186" width="37" height="25" stroke="black"/>
<rect x="438" y="186" width="105" height="25" fill="#D9D9D9"/>
<rect x="438" y="186" width="105" height="25" stroke="black"/>
<rect x="29" y="211" width="19" height="13" stroke="black"/>
<rect x="48" y="211" width="59" height="13" stroke="black"/>
<rect x="107" y="211" width="42" height="13" stroke="black"/>
<rect x="149" y="211" width="59" height="13" stroke="black"/>
<rect x="208" y="211" width="33" height="13" stroke="black"/>
<rect x="241" y="211" width="42" height="13" stroke="black"/>
<rect x="283" y="211" width="30" height="13" stroke="black"/>
<rect x="313" y="211" width="88" height="13" stroke="black"/>
<rect x="401" y="211" width="37" height="13" stroke="black"/>
<rect x="438" y="211" width="105" height="13" stroke="black"/>
<rect x="29" y="224" width="19" height="13" stroke="black"/>
<rect x="48" y="224" width="59" height="13" stroke="black"/>
<rect x="107" y="224" width="42" height="13" stroke="black"/>
<rect x="149" y="224" width="59" height="13" stroke="black"/>
<rect x="208" y="224" width="33" height="13" stroke="black"/>
<rect x="241" y="224" width="42" height="13" stroke="black"/>
<rect x="283" y="224" width="30" height="13" stroke="black"/>
<rect x="313" y="224" width="88" height="13" stroke="black"/>
<rect x="401" y="224" width="37" height="13" stroke="black"/>
<rect x="438" y="224" width="105" height="13" stroke="black"/>
<rect x="29" y="237" width="19" height="13" stroke="black"/>
<rect x="48" y="237" width="59" height="13" stroke="black"/>
<rect x="107" y="237" width="42" height="13" stroke="black"/>
<rect x="149" y="237" width="59" height="13" stroke="black"/>
<rect x="208" y="237" width="33" height="13" stroke="black"/>
<rect x="241" y="237" width="42" height="13" stroke="black"/>
<rect x="283" y="237" width="30" height="13" stroke="black"/>
<rect x="313" y="237" width="88" height="13" stroke="black"/>
<rect x="401" y="237" width="37" height="13" stroke="black"/>
<rect x="438" y="237" width="105" height="13" stroke="black"/>
<rect x="29" y="250" width="19" height="13" stroke="black"/>
<rect x="48" y="250" width="59" height="13" stroke="black"/>
<rect x="107" y="250" width="42" height="13" stroke="black"/>
<rect x="149" y="250" width="59" height="13" stroke="black"/>
<rect x="208" y="250" width="33" height="13" stroke="black"/>
<rect x="241" y="250" width="42" height="13" stroke="black"/>
<rect x="283" y="250" width="30" height="13" stroke="black"/>
<rect x="313" y="250" width="88" height="13" stroke="black"/>
<rect x="401" y="250" width="37" height="13" stroke="black"/>
<rect x="438" y="250" width="105" height="13" stroke="black"/>
<rect x="29" y="263" width="19" height="13" stroke="black"/>
<rect x="48" y="263" width="59" height="13" stroke="black"/>
<rect x="107" y="263" width="42" height="13" stroke="black"/>
<rect x="149" y="263" width="59" height="13" stroke="black"/>
<rect x="208" y="263" width="33" height="13" stroke="black"/>
<rect x="241" y="263" width="42" height="13" stroke="black"/>
<rect x="283" y="263" width="30" height="13" stroke="black"/>
<rect x="313" y="263" width="88" height="13" stroke="black"/>
<rect x="401" y="263" width="37" height="13" stroke="black"/>
<rect x="438" y="263" width="105" height="13" stroke="black"/>
<rect x="29" y="276" width="19" height="13" stroke="black"/>
<rect x="48" y="276" width="59" height="13" stroke="black"/>
<rect x="107" y="276" width="42" height="13" stroke="black"/>
<rect x="149" y="276" width="59" height="13" stroke="black"/>
<rect x="208" y="276" width="33" height="13" stroke="black"/>
<rect x="241" y="276" width="42" height="13" stroke="black"/>
<rect x="283" y="276" width="30" height="13" stroke="black"/>
<rect x="313" y="276" width="88" height="13" stroke="black"/>
<rect x="401" y="276" width="37" height="13" stroke="black"/>
<rect x="438" y="276" width="105" height="13" stroke="black"/>
<rect x="29" y="289" width="19" height="13" stroke="black"/>
<rect x="48" y="289" width="59" height="13" stroke="black"/>
<rect x="107" y="289" width="42" height="13" stroke="black"/>
<rect x="149" y="289" width="59" height="13" stroke="black"/>
<rect x="208" y="289" width="33" height="13" stroke="black"/>
<rect x="241" y="289" width="42" height="13" stroke="black"/>
<rect x="283" y="289" width="30" height="13" stroke="black"/>
<rect x="313" y="289" width="88" height="13" stroke="black"/>
<rect x="401" y="289" width="37" height="13" stroke="black"/>
<rect x="438" y="289" width="105" height="13" stroke="black"/>
<rect x="210" y="72" width="152" height="22" fill="#D9D9D9"/>
<rect x="210" y="100" width="152" height="7" fill="#D9D9D9"/>
<rect x="85" y="24" width="46" height="10" fill="#D9D9D9"/>
<rect x="70" y="37" width="76" height="10" fill="#D9D9D9"/>
<rect x="93" y="51" width="30" height="3" fill="#D9D9D9"/>
<rect x="442" y="37" width="46" height="10" fill="#D9D9D9"/>
<rect x="427" y="24" width="76" height="10" fill="#D9D9D9"/>
<rect x="450" y="51" width="30" height="3" fill="#D9D9D9"/>
<rect width="161" height="16" transform="translate(25 139)" fill="#0EA5E9" fill-opacity="0.26"/>
<rect x="25" y="139" width="161" height="16" stroke="black" stroke-width="2"/>
</g>
<defs>
<clipPath id="clip0_12_143">
<rect width="572" height="380" fill="white"/>
</clipPath>
</defs>
</svg>
