<svg width="572" height="380" viewBox="0 0 572 380" fill="none" xmlns="http://www.w3.org/2000/svg">
<g clip-path="url(#clip0_3_350)">
<rect width="572" height="380" fill="white"/>
<rect width="572" height="380" fill="white"/>
<rect x="29" y="132" width="152" height="7" fill="#D9D9D9"/>
<rect x="29" y="143" width="152" height="7" fill="#D9D9D9"/>
<rect x="29" y="154" width="249" height="7" fill="#D9D9D9"/>
<rect x="29" y="165" width="305" height="7" fill="#D9D9D9"/>
<rect x="29" y="316" width="305" height="7" fill="#D9D9D9"/>
<rect x="29" y="327" width="305" height="7" fill="#D9D9D9"/>
<rect x="29" y="338" width="249" height="7" fill="#D9D9D9"/>
<rect x="29" y="349" width="249" height="7" fill="#D9D9D9"/>
<rect x="451" y="316" width="92" height="7" fill="#D9D9D9"/>
<rect x="474" y="349" width="46" height="7" fill="#D9D9D9"/>
<rect x="29" y="186" width="19" height="25" fill="#D9D9D9"/>
<path d="M35.8263 195.928H33.9223V195.288H38.4903V195.928H36.5863V201H35.8263V195.928ZM40.42 195.928H38.516V195.288H43.084V195.928H41.18V201H40.42V195.928Z" fill="black"/>
<rect x="29" y="186" width="19" height="25" stroke="black"/>
<rect x="48" y="186" width="59" height="25" fill="#D9D9D9"/>
<path d="M52.9678 195.288H53.7278V200.36H56.7517V201H52.9678V195.288ZM60.9171 198.824C60.9171 199.496 60.7517 200.053 60.4211 200.496C60.0957 200.933 59.5891 201.152 58.9011 201.152C58.3251 201.152 57.8664 200.957 57.5251 200.568C57.1891 200.179 57.0211 199.656 57.0211 199C57.0211 198.291 57.1997 197.731 57.5571 197.32C57.9197 196.904 58.3971 196.696 58.9891 196.696C59.5277 196.696 59.9837 196.875 60.3571 197.232C60.4211 197.291 60.4771 197.355 60.5251 197.424C60.5464 197.424 60.5891 197.419 60.6531 197.408C60.7757 197.403 60.8877 197.379 60.9891 197.336L61.0371 197.312L61.0771 197.28L60.9171 196.888L61.7011 196.56L62.0211 197.336L61.2851 197.64C61.1091 197.715 60.9251 197.765 60.7331 197.792C60.8557 198.085 60.9171 198.429 60.9171 198.824ZM60.1811 198.84C60.1811 198.461 60.1197 198.144 59.9971 197.888C59.7944 197.504 59.4531 197.312 58.9731 197.312C58.5464 197.312 58.2317 197.477 58.0291 197.808C57.8371 198.133 57.7411 198.528 57.7411 198.992C57.7411 199.435 57.8371 199.805 58.0291 200.104C58.2264 200.397 58.5384 200.544 58.9651 200.544C59.4344 200.544 59.7517 200.368 59.9171 200.016C60.0931 199.664 60.1811 199.272 60.1811 198.84ZM59.1571 195.2H60.0291L58.9811 196.336H58.4451L59.1571 195.2ZM62.7313 196.864H63.4113V197.424H63.4273C63.6406 196.987 64.0806 196.768 64.7473 196.768C65.3553 196.768 65.8246 196.976 66.1553 197.392C66.486 197.808 66.6513 198.325 66.6513 198.944C66.6513 199.568 66.4886 200.083 66.1633 200.488C65.838 200.888 65.3713 201.088 64.7633 201.088C64.5126 201.088 64.2593 201.037 64.0033 200.936C63.7526 200.835 63.5606 200.672 63.4273 200.448H63.4113V202.576H62.7313V196.864ZM65.9313 198.896C65.9313 198.475 65.822 198.115 65.6033 197.816C65.3846 197.517 65.0673 197.368 64.6513 197.368C64.2246 197.368 63.9073 197.52 63.6993 197.824C63.4913 198.128 63.3873 198.496 63.3873 198.928C63.3873 199.371 63.494 199.744 63.7073 200.048C63.926 200.347 64.254 200.496 64.6913 200.496C65.1233 200.496 65.438 200.344 65.6353 200.04C65.8326 199.731 65.9313 199.349 65.9313 198.896ZM69.6761 195.288H70.3561V197.472H70.3721C70.4681 197.237 70.6387 197.061 70.8841 196.944C71.1347 196.827 71.3987 196.768 71.6761 196.768C72.1881 196.768 72.5534 196.901 72.7721 197.168C72.9907 197.429 73.1001 197.8 73.1001 198.28V201H72.4201V198.2C72.4201 197.944 72.3454 197.741 72.1961 197.592C72.0467 197.443 71.8414 197.368 71.5801 197.368C71.1801 197.368 70.8761 197.488 70.6681 197.728C70.4601 197.963 70.3561 198.275 70.3561 198.664V201H69.6761V195.288ZM77.0014 198.84C77.0014 198.461 76.94 198.144 76.8174 197.888C76.6147 197.504 76.2734 197.312 75.7934 197.312C75.3667 197.312 75.052 197.477 74.8494 197.808C74.6574 198.133 74.5614 198.528 74.5614 198.992C74.5614 199.435 74.6574 199.805 74.8494 200.104C75.0467 200.397 75.3587 200.544 75.7854 200.544C76.2547 200.544 76.572 200.368 76.7374 200.016C76.9134 199.664 77.0014 199.272 77.0014 198.84ZM77.7374 198.824C77.7374 199.496 77.572 200.053 77.2414 200.496C76.916 200.933 76.4094 201.152 75.7214 201.152C75.1454 201.152 74.6867 200.957 74.3454 200.568C74.0094 200.179 73.8414 199.656 73.8414 199C73.8414 198.291 74.02 197.731 74.3774 197.32C74.74 196.904 75.2174 196.696 75.8094 196.696C76.3427 196.696 76.7987 196.877 77.1774 197.24C77.5507 197.597 77.7374 198.125 77.7374 198.824ZM75.5214 202.32V201.504H76.2494V202.32H75.5214ZM81.3747 198.192C81.2627 197.643 80.9214 197.368 80.3507 197.368C79.8974 197.368 79.5694 197.52 79.3667 197.824C79.164 198.128 79.0627 198.515 79.0627 198.984C79.0627 199.411 79.1614 199.771 79.3587 200.064C79.5614 200.352 79.8654 200.496 80.2707 200.496C80.9374 200.496 81.316 200.16 81.4067 199.488H82.1027C82.028 200.005 81.836 200.403 81.5267 200.68C81.2174 200.952 80.8014 201.088 80.2787 201.088C79.66 201.088 79.1827 200.899 78.8467 200.52C78.5107 200.136 78.3427 199.624 78.3427 198.984C78.3427 198.333 78.5107 197.803 78.8467 197.392C79.1827 196.976 79.6654 196.768 80.2947 196.768C80.7854 196.768 81.1934 196.888 81.5187 197.128C81.844 197.363 82.0307 197.717 82.0787 198.192H81.3747ZM85.1141 196.864H85.7941V197.424H85.8101C86.0235 196.987 86.4635 196.768 87.1301 196.768C87.7381 196.768 88.2075 196.976 88.5381 197.392C88.8688 197.808 89.0341 198.325 89.0341 198.944C89.0341 199.568 88.8715 200.083 88.5461 200.488C88.2208 200.888 87.7541 201.088 87.1461 201.088C86.8955 201.088 86.6421 201.037 86.3861 200.936C86.1355 200.835 85.9435 200.672 85.8101 200.448H85.7941V202.576H85.1141V196.864ZM88.3141 198.896C88.3141 198.475 88.2048 198.115 87.9861 197.816C87.7675 197.517 87.4501 197.368 87.0341 197.368C86.6075 197.368 86.2901 197.52 86.0821 197.824C85.8741 198.128 85.7701 198.496 85.7701 198.928C85.7701 199.371 85.8768 199.744 86.0901 200.048C86.3088 200.347 86.6368 200.496 87.0741 200.496C87.5061 200.496 87.8208 200.344 88.0181 200.04C88.2155 199.731 88.3141 199.349 88.3141 198.896ZM89.8323 195.288H90.5123V197.472H90.5283C90.6243 197.237 90.795 197.061 91.0403 196.944C91.291 196.827 91.555 196.768 91.8323 196.768C92.3443 196.768 92.7096 196.901 92.9283 197.168C93.147 197.429 93.2563 197.8 93.2563 198.28V201H92.5763V198.2C92.5763 197.944 92.5016 197.741 92.3523 197.592C92.203 197.443 91.9976 197.368 91.7363 197.368C91.3363 197.368 91.0323 197.488 90.8243 197.728C90.6163 197.963 90.5123 198.275 90.5123 198.664V201H89.8323V195.288ZM95.5736 200.544C95.819 200.544 96.0563 200.485 96.2856 200.368C96.6803 200.181 96.8776 199.872 96.8776 199.44V198.872C96.707 198.979 96.4616 199.051 96.1416 199.088L95.7176 199.144C95.467 199.176 95.275 199.229 95.1416 199.304C94.9283 199.421 94.8216 199.616 94.8216 199.888C94.8216 200.085 94.8936 200.245 95.0376 200.368C95.1816 200.485 95.3603 200.544 95.5736 200.544ZM95.4056 198.608L96.5256 198.464C96.6856 198.443 96.7923 198.376 96.8456 198.264C96.8776 198.2 96.8936 198.109 96.8936 197.992C96.8936 197.539 96.5656 197.312 95.9096 197.312C95.5363 197.312 95.275 197.411 95.1256 197.608C95.0403 197.709 94.9843 197.872 94.9576 198.096H94.3016C94.307 197.579 94.4723 197.219 94.7976 197.016C95.1283 196.813 95.5043 196.712 95.9256 196.712C96.4163 196.712 96.8136 196.808 97.1176 197C97.427 197.181 97.5816 197.472 97.5816 197.872V200.28C97.5816 200.36 97.5976 200.421 97.6296 200.464C97.6616 200.501 97.723 200.52 97.8136 200.52C97.8403 200.52 97.9176 200.515 98.0456 200.504V201.016C97.8803 201.064 97.7176 201.088 97.5576 201.088C97.3176 201.088 97.1416 201.003 97.0296 200.832C96.9763 200.741 96.9363 200.613 96.9096 200.448C96.755 200.645 96.5416 200.811 96.2696 200.944C96.003 201.077 95.715 201.144 95.4056 201.144C95.0216 201.144 94.7043 201.027 94.4536 200.792C94.2083 200.552 94.0856 200.256 94.0856 199.904C94.0856 199.525 94.203 199.227 94.4376 199.008C94.6723 198.789 94.995 198.656 95.4056 198.608ZM95.5736 195.28H96.3176L97.1096 196.408H96.4696L95.9416 195.664L95.4216 196.408H94.7816L95.5736 195.28ZM94.4296 194.528L95.1416 195.656H94.6056L93.5576 194.528H94.4296ZM98.7229 196.864H99.3629V197.52H99.3789C99.6563 197.019 100.104 196.768 100.723 196.768C101.235 196.768 101.6 196.901 101.819 197.168C102.038 197.429 102.147 197.8 102.147 198.28V201H101.467V198.2C101.467 197.944 101.392 197.741 101.243 197.592C101.094 197.443 100.888 197.368 100.627 197.368C100.227 197.368 99.9229 197.488 99.7149 197.728C99.5069 197.963 99.4029 198.275 99.4029 198.664V201H98.7229V196.864Z" fill="black"/>
<rect x="48" y="186" width="59" height="25" stroke="black"/>
<rect x="107" y="186" width="42" height="25" fill="#D9D9D9"/>
<path d="M117.8 190.288H118.608L121.616 194.92H121.632V190.288H122.352V196H121.52L118.536 191.416H118.52V196H117.8V190.288ZM123.469 190.288H124.149V192.472H124.165C124.261 192.237 124.432 192.061 124.677 191.944C124.928 191.827 125.192 191.768 125.469 191.768C125.981 191.768 126.346 191.901 126.565 192.168C126.784 192.429 126.893 192.8 126.893 193.28V196H126.213V193.2C126.213 192.944 126.138 192.741 125.989 192.592C125.84 192.443 125.634 192.368 125.373 192.368C124.973 192.368 124.669 192.488 124.461 192.728C124.253 192.963 124.149 193.275 124.149 193.664V196H123.469V190.288ZM129.898 190.152H130.77L129.722 191.296H129.21L129.898 190.152ZM128.778 192.792C128.533 193.069 128.41 193.451 128.41 193.936C128.41 194.421 128.533 194.803 128.778 195.08C129.024 195.357 129.33 195.496 129.698 195.496C130.066 195.496 130.373 195.357 130.618 195.08C130.864 194.803 130.986 194.421 130.986 193.936C130.986 193.451 130.864 193.069 130.618 192.792C130.373 192.509 130.066 192.368 129.698 192.368C129.33 192.368 129.024 192.509 128.778 192.792ZM127.69 193.936C127.69 193.301 127.866 192.781 128.218 192.376C128.57 191.971 129.064 191.768 129.698 191.768C130.333 191.768 130.826 191.971 131.178 192.376C131.53 192.781 131.706 193.301 131.706 193.936C131.706 194.565 131.53 195.083 131.178 195.488C130.826 195.888 130.333 196.088 129.698 196.088C129.064 196.088 128.57 195.888 128.218 195.488C127.866 195.083 127.69 194.565 127.69 193.936ZM132.508 191.864H133.148V192.472H133.164C133.473 192.003 133.919 191.768 134.5 191.768C135.103 191.768 135.481 192.003 135.636 192.472C135.929 192.003 136.361 191.768 136.932 191.768C137.849 191.768 138.308 192.168 138.308 192.968V196H137.628V193.288C137.628 192.995 137.572 192.768 137.46 192.608C137.348 192.448 137.137 192.368 136.828 192.368C136.492 192.368 136.228 192.464 136.036 192.656C135.844 192.848 135.748 193.104 135.748 193.424V196H135.068V193.288C135.068 192.995 135.009 192.768 134.892 192.608C134.78 192.448 134.58 192.368 134.292 192.368C133.94 192.368 133.668 192.491 133.476 192.736C133.284 192.976 133.188 193.205 133.188 193.424V196H132.508V191.864ZM112.784 201.864H113.608V202.464H112.784V205.032C112.784 205.192 112.816 205.293 112.88 205.336C112.944 205.379 113.083 205.4 113.296 205.4H113.608V206H113.088C112.72 206 112.464 205.941 112.32 205.824C112.176 205.701 112.104 205.459 112.104 205.096V202.464H111.4V201.864H112.104V200.624H112.784V201.864ZM114.364 200.288H115.044V202.472H115.06C115.156 202.237 115.326 202.061 115.572 201.944C115.822 201.827 116.086 201.768 116.364 201.768C116.876 201.768 117.241 201.901 117.46 202.168C117.678 202.429 117.788 202.8 117.788 203.28V206H117.108V203.2C117.108 202.944 117.033 202.741 116.884 202.592C116.734 202.443 116.529 202.368 116.268 202.368C115.868 202.368 115.564 202.488 115.356 202.728C115.148 202.963 115.044 203.275 115.044 203.664V206H114.364V200.288ZM120.105 205.544C120.35 205.544 120.588 205.485 120.817 205.368C121.212 205.181 121.409 204.872 121.409 204.44V203.872C121.238 203.979 120.993 204.051 120.673 204.088L120.249 204.144C119.998 204.176 119.806 204.229 119.673 204.304C119.46 204.421 119.353 204.616 119.353 204.888C119.353 205.085 119.425 205.245 119.569 205.368C119.713 205.485 119.892 205.544 120.105 205.544ZM119.937 203.608L121.057 203.464C121.217 203.443 121.324 203.376 121.377 203.264C121.409 203.2 121.425 203.109 121.425 202.992C121.425 202.539 121.097 202.312 120.441 202.312C120.068 202.312 119.806 202.411 119.657 202.608C119.572 202.709 119.516 202.872 119.489 203.096H118.833C118.838 202.579 119.004 202.219 119.329 202.016C119.66 201.813 120.036 201.712 120.457 201.712C120.948 201.712 121.345 201.808 121.649 202C121.958 202.181 122.113 202.472 122.113 202.872V205.28C122.113 205.36 122.129 205.421 122.161 205.464C122.193 205.501 122.254 205.52 122.345 205.52C122.372 205.52 122.449 205.515 122.577 205.504V206.016C122.412 206.064 122.249 206.088 122.089 206.088C121.849 206.088 121.673 206.003 121.561 205.832C121.508 205.741 121.468 205.613 121.441 205.448C121.286 205.645 121.073 205.811 120.801 205.944C120.534 206.077 120.246 206.144 119.937 206.144C119.553 206.144 119.236 206.027 118.985 205.792C118.74 205.552 118.617 205.256 118.617 204.904C118.617 204.525 118.734 204.227 118.969 204.008C119.204 203.789 119.526 203.656 119.937 203.608ZM120.681 200.568C120.617 200.52 120.526 200.496 120.409 200.496C120.345 200.496 120.26 200.504 120.153 200.52L120.137 200.208C120.153 200.208 120.201 200.205 120.281 200.2C120.366 200.189 120.43 200.184 120.473 200.184C120.777 200.184 120.998 200.288 121.137 200.496C121.196 200.592 121.225 200.696 121.225 200.808C121.225 201.085 121.054 201.261 120.713 201.336L120.697 201.504H120.353V201.208C120.502 201.192 120.62 201.147 120.705 201.072C120.796 200.997 120.841 200.915 120.841 200.824C120.841 200.728 120.788 200.643 120.681 200.568ZM124.118 202.792C123.873 203.069 123.75 203.451 123.75 203.936C123.75 204.421 123.873 204.803 124.118 205.08C124.364 205.357 124.67 205.496 125.038 205.496C125.406 205.496 125.713 205.357 125.958 205.08C126.204 204.803 126.326 204.421 126.326 203.936C126.326 203.451 126.204 203.069 125.958 202.792C125.713 202.509 125.406 202.368 125.038 202.368C124.67 202.368 124.364 202.509 124.118 202.792ZM123.03 203.936C123.03 203.301 123.206 202.781 123.558 202.376C123.91 201.971 124.404 201.768 125.038 201.768C125.673 201.768 126.166 201.971 126.518 202.376C126.87 202.781 127.046 203.301 127.046 203.936C127.046 204.565 126.87 205.083 126.518 205.488C126.166 205.888 125.673 206.088 125.038 206.088C124.404 206.088 123.91 205.888 123.558 205.488C123.206 205.083 123.03 204.565 123.03 203.936ZM130.115 200.288H130.795V206H130.115V200.288ZM135.272 206H134.632V205.344H134.616C134.339 205.84 133.891 206.088 133.272 206.088C132.755 206.088 132.387 205.957 132.168 205.696C131.955 205.435 131.848 205.064 131.848 204.584V201.864H132.528V204.664C132.528 204.92 132.603 205.123 132.752 205.272C132.901 205.421 133.107 205.496 133.368 205.496C133.768 205.496 134.072 205.379 134.28 205.144C134.488 204.904 134.592 204.589 134.592 204.2V201.864H135.272V206ZM137.589 205.544C137.835 205.544 138.072 205.485 138.301 205.368C138.696 205.181 138.893 204.872 138.893 204.44V203.872C138.723 203.979 138.477 204.051 138.157 204.088L137.733 204.144C137.483 204.176 137.291 204.229 137.157 204.304C136.944 204.421 136.837 204.616 136.837 204.888C136.837 205.085 136.909 205.245 137.053 205.368C137.197 205.485 137.376 205.544 137.589 205.544ZM137.421 203.608L138.541 203.464C138.701 203.443 138.808 203.376 138.861 203.264C138.893 203.2 138.909 203.109 138.909 202.992C138.909 202.539 138.581 202.312 137.925 202.312C137.552 202.312 137.291 202.411 137.141 202.608C137.056 202.709 137 202.872 136.973 203.096H136.317C136.323 202.579 136.488 202.219 136.813 202.016C137.144 201.813 137.52 201.712 137.941 201.712C138.432 201.712 138.829 201.808 139.133 202C139.443 202.181 139.597 202.472 139.597 202.872V205.28C139.597 205.36 139.613 205.421 139.645 205.464C139.677 205.501 139.739 205.52 139.829 205.52C139.856 205.52 139.933 205.515 140.061 205.504V206.016C139.896 206.064 139.733 206.088 139.573 206.088C139.333 206.088 139.157 206.003 139.045 205.832C138.992 205.741 138.952 205.613 138.925 205.448C138.771 205.645 138.557 205.811 138.285 205.944C138.019 206.077 137.731 206.144 137.421 206.144C137.037 206.144 136.72 206.027 136.469 205.792C136.224 205.552 136.101 205.256 136.101 204.904C136.101 204.525 136.219 204.227 136.453 204.008C136.688 203.789 137.011 203.656 137.421 203.608ZM137.653 200.176H138.397L139.189 201.304H138.549L138.021 200.552L137.493 201.304H136.861L137.653 200.176ZM137.693 207.312V206.496H138.429V207.312H137.693ZM140.739 201.864H141.379V202.52H141.395C141.672 202.019 142.12 201.768 142.739 201.768C143.251 201.768 143.616 201.901 143.835 202.168C144.053 202.429 144.163 202.8 144.163 203.28V206H143.483V203.2C143.483 202.944 143.408 202.741 143.259 202.592C143.109 202.443 142.904 202.368 142.643 202.368C142.243 202.368 141.939 202.488 141.731 202.728C141.523 202.963 141.419 203.275 141.419 203.664V206H140.739V201.864Z" fill="black"/>
<rect x="107" y="186" width="42" height="25" stroke="black"/>
<rect x="149" y="186" width="59" height="25" fill="#D9D9D9"/>
<path d="M155.893 195.928H153.989V195.288H158.557V195.928H156.653V201H155.893V195.928ZM160.342 195.152H161.086L161.918 196.296H161.246L160.694 195.528L160.134 196.296H159.518L160.342 195.152ZM161.95 198.536C161.929 198.205 161.806 197.928 161.582 197.704C161.364 197.48 161.089 197.368 160.758 197.368C160.417 197.368 160.14 197.48 159.926 197.704C159.713 197.928 159.596 198.205 159.574 198.536H161.95ZM162.606 199.688C162.516 200.147 162.316 200.496 162.006 200.736C161.702 200.971 161.313 201.088 160.838 201.088C160.204 201.088 159.718 200.893 159.382 200.504C159.052 200.109 158.876 199.581 158.854 198.92C158.854 198.296 159.036 197.781 159.398 197.376C159.766 196.971 160.233 196.768 160.798 196.768C161.081 196.768 161.334 196.819 161.558 196.92C161.782 197.021 161.964 197.152 162.102 197.312C162.241 197.472 162.356 197.659 162.446 197.872C162.537 198.085 162.598 198.299 162.63 198.512C162.668 198.72 162.681 198.928 162.67 199.136H159.574C159.564 199.52 159.668 199.843 159.886 200.104C160.105 200.365 160.43 200.496 160.862 200.496C161.46 200.496 161.817 200.227 161.934 199.688H162.606ZM163.375 196.864H164.015V197.52H164.031C164.309 197.019 164.757 196.768 165.375 196.768C165.887 196.768 166.253 196.901 166.471 197.168C166.69 197.429 166.799 197.8 166.799 198.28V201H166.119V198.2C166.119 197.944 166.045 197.741 165.895 197.592C165.746 197.443 165.541 197.368 165.279 197.368C164.879 197.368 164.575 197.488 164.367 197.728C164.159 197.963 164.055 198.275 164.055 198.664V201H163.375V196.864ZM170.047 195.288H170.727V197.472H170.743C170.839 197.237 171.01 197.061 171.255 196.944C171.506 196.827 171.77 196.768 172.047 196.768C172.559 196.768 172.924 196.901 173.143 197.168C173.362 197.429 173.471 197.8 173.471 198.28V201H172.791V198.2C172.791 197.944 172.716 197.741 172.567 197.592C172.418 197.443 172.212 197.368 171.951 197.368C171.551 197.368 171.247 197.488 171.039 197.728C170.831 197.963 170.727 198.275 170.727 198.664V201H170.047V195.288ZM177.372 198.84C177.372 198.461 177.311 198.144 177.188 197.888C176.986 197.504 176.644 197.312 176.164 197.312C175.738 197.312 175.423 197.477 175.22 197.808C175.028 198.133 174.932 198.528 174.932 198.992C174.932 199.435 175.028 199.805 175.22 200.104C175.418 200.397 175.73 200.544 176.156 200.544C176.626 200.544 176.943 200.368 177.108 200.016C177.284 199.664 177.372 199.272 177.372 198.84ZM178.108 198.824C178.108 199.496 177.943 200.053 177.612 200.496C177.287 200.933 176.78 201.152 176.092 201.152C175.516 201.152 175.058 200.957 174.716 200.568C174.38 200.179 174.212 199.656 174.212 199C174.212 198.291 174.391 197.731 174.748 197.32C175.111 196.904 175.588 196.696 176.18 196.696C176.714 196.696 177.17 196.877 177.548 197.24C177.922 197.597 178.108 198.125 178.108 198.824ZM175.892 202.32V201.504H176.62V202.32H175.892ZM181.746 198.192C181.634 197.643 181.292 197.368 180.722 197.368C180.268 197.368 179.94 197.52 179.738 197.824C179.535 198.128 179.434 198.515 179.434 198.984C179.434 199.411 179.532 199.771 179.73 200.064C179.932 200.352 180.236 200.496 180.642 200.496C181.308 200.496 181.687 200.16 181.778 199.488H182.474C182.399 200.005 182.207 200.403 181.898 200.68C181.588 200.952 181.172 201.088 180.65 201.088C180.031 201.088 179.554 200.899 179.218 200.52C178.882 200.136 178.714 199.624 178.714 198.984C178.714 198.333 178.882 197.803 179.218 197.392C179.554 196.976 180.036 196.768 180.666 196.768C181.156 196.768 181.564 196.888 181.89 197.128C182.215 197.363 182.402 197.717 182.45 198.192H181.746ZM185.485 196.864H186.165V197.424H186.181C186.395 196.987 186.835 196.768 187.501 196.768C188.109 196.768 188.579 196.976 188.909 197.392C189.24 197.808 189.405 198.325 189.405 198.944C189.405 199.568 189.243 200.083 188.917 200.488C188.592 200.888 188.125 201.088 187.517 201.088C187.267 201.088 187.013 201.037 186.757 200.936C186.507 200.835 186.315 200.672 186.181 200.448H186.165V202.576H185.485V196.864ZM188.685 198.896C188.685 198.475 188.576 198.115 188.357 197.816C188.139 197.517 187.821 197.368 187.405 197.368C186.979 197.368 186.661 197.52 186.453 197.824C186.245 198.128 186.141 198.496 186.141 198.928C186.141 199.371 186.248 199.744 186.461 200.048C186.68 200.347 187.008 200.496 187.445 200.496C187.877 200.496 188.192 200.344 188.389 200.04C188.587 199.731 188.685 199.349 188.685 198.896ZM190.203 195.288H190.883V197.472H190.899C190.995 197.237 191.166 197.061 191.411 196.944C191.662 196.827 191.926 196.768 192.203 196.768C192.715 196.768 193.081 196.901 193.299 197.168C193.518 197.429 193.627 197.8 193.627 198.28V201H192.947V198.2C192.947 197.944 192.873 197.741 192.723 197.592C192.574 197.443 192.369 197.368 192.107 197.368C191.707 197.368 191.403 197.488 191.195 197.728C190.987 197.963 190.883 198.275 190.883 198.664V201H190.203V195.288ZM195.945 200.544C196.19 200.544 196.427 200.485 196.657 200.368C197.051 200.181 197.249 199.872 197.249 199.44V198.872C197.078 198.979 196.833 199.051 196.513 199.088L196.089 199.144C195.838 199.176 195.646 199.229 195.513 199.304C195.299 199.421 195.193 199.616 195.193 199.888C195.193 200.085 195.265 200.245 195.409 200.368C195.553 200.485 195.731 200.544 195.945 200.544ZM195.777 198.608L196.897 198.464C197.057 198.443 197.163 198.376 197.217 198.264C197.249 198.2 197.265 198.109 197.265 197.992C197.265 197.539 196.937 197.312 196.281 197.312C195.907 197.312 195.646 197.411 195.497 197.608C195.411 197.709 195.355 197.872 195.329 198.096H194.673C194.678 197.579 194.843 197.219 195.169 197.016C195.499 196.813 195.875 196.712 196.297 196.712C196.787 196.712 197.185 196.808 197.489 197C197.798 197.181 197.953 197.472 197.953 197.872V200.28C197.953 200.36 197.969 200.421 198.001 200.464C198.033 200.501 198.094 200.52 198.185 200.52C198.211 200.52 198.289 200.515 198.417 200.504V201.016C198.251 201.064 198.089 201.088 197.929 201.088C197.689 201.088 197.513 201.003 197.401 200.832C197.347 200.741 197.307 200.613 197.281 200.448C197.126 200.645 196.913 200.811 196.641 200.944C196.374 201.077 196.086 201.144 195.777 201.144C195.393 201.144 195.075 201.027 194.825 200.792C194.579 200.552 194.457 200.256 194.457 199.904C194.457 199.525 194.574 199.227 194.809 199.008C195.043 198.789 195.366 198.656 195.777 198.608ZM195.945 195.28H196.689L197.481 196.408H196.841L196.313 195.664L195.793 196.408H195.153L195.945 195.28ZM194.801 194.528L195.513 195.656H194.977L193.929 194.528H194.801ZM199.094 196.864H199.734V197.52H199.75C200.027 197.019 200.475 196.768 201.094 196.768C201.606 196.768 201.971 196.901 202.19 197.168C202.409 197.429 202.518 197.8 202.518 198.28V201H201.838V198.2C201.838 197.944 201.763 197.741 201.614 197.592C201.465 197.443 201.259 197.368 200.998 197.368C200.598 197.368 200.294 197.488 200.086 197.728C199.878 197.963 199.774 198.275 199.774 198.664V201H199.094V196.864Z" fill="black"/>
<rect x="149" y="186" width="59" height="25" stroke="black"/>
<rect x="208" y="186" width="33" height="25" fill="#D9D9D9"/>
<path d="M217.315 196.96C217.229 196.181 216.757 195.792 215.899 195.792C215.531 195.792 215.224 195.869 214.979 196.024C214.739 196.173 214.619 196.421 214.619 196.768C214.619 196.96 214.685 197.117 214.819 197.24C214.952 197.363 215.125 197.459 215.339 197.528C215.557 197.592 215.795 197.651 216.051 197.704C216.312 197.752 216.573 197.813 216.835 197.888C217.096 197.957 217.333 198.048 217.547 198.16C217.765 198.272 217.941 198.437 218.075 198.656C218.208 198.869 218.275 199.128 218.275 199.432C218.275 199.725 218.208 199.987 218.075 200.216C217.941 200.44 217.765 200.616 217.547 200.744C217.328 200.872 217.091 200.968 216.835 201.032C216.579 201.096 216.315 201.128 216.043 201.128C215.36 201.128 214.795 200.957 214.347 200.616C213.904 200.275 213.683 199.776 213.683 199.12H214.403C214.403 199.573 214.563 199.917 214.883 200.152C215.203 200.381 215.597 200.496 216.067 200.496C216.472 200.496 216.813 200.416 217.091 200.256C217.373 200.096 217.515 199.829 217.515 199.456C217.515 199.243 217.448 199.067 217.315 198.928C217.181 198.789 217.005 198.685 216.787 198.616C216.573 198.541 216.336 198.477 216.075 198.424C215.819 198.371 215.56 198.312 215.299 198.248C215.037 198.179 214.797 198.093 214.579 197.992C214.365 197.891 214.192 197.741 214.059 197.544C213.925 197.347 213.859 197.107 213.859 196.824C213.859 196.28 214.061 195.867 214.467 195.584C214.872 195.296 215.36 195.152 215.931 195.152C216.549 195.152 217.048 195.304 217.427 195.608C217.811 195.907 218.013 196.357 218.035 196.96H217.315ZM221.966 198.84C221.966 198.461 221.905 198.144 221.782 197.888C221.58 197.504 221.238 197.312 220.758 197.312C220.332 197.312 220.017 197.477 219.814 197.808C219.622 198.133 219.526 198.528 219.526 198.992C219.526 199.435 219.622 199.805 219.814 200.104C220.012 200.397 220.324 200.544 220.75 200.544C221.22 200.544 221.537 200.368 221.702 200.016C221.878 199.664 221.966 199.272 221.966 198.84ZM222.702 198.824C222.702 199.496 222.537 200.053 222.206 200.496C221.881 200.933 221.374 201.152 220.686 201.152C220.11 201.152 219.652 200.957 219.31 200.568C218.974 200.179 218.806 199.656 218.806 199C218.806 198.291 218.985 197.731 219.342 197.32C219.705 196.904 220.182 196.696 220.774 196.696C221.308 196.696 221.764 196.877 222.142 197.24C222.516 197.597 222.702 198.125 222.702 198.824ZM220.454 195.2H221.198L221.998 196.328H221.358L220.83 195.576L220.302 196.328H219.662L220.454 195.2ZM222.142 194.448H223.014L221.966 195.576H221.43L222.142 194.448ZM227.166 195.928H225.262V195.288H229.83V195.928H227.926V201H227.166V195.928ZM234.48 197.008C234.4 196.613 234.216 196.312 233.928 196.104C233.64 195.896 233.291 195.792 232.88 195.792C232.24 195.792 231.757 196.016 231.432 196.464C231.107 196.907 230.944 197.453 230.944 198.104C230.944 198.803 231.104 199.376 231.424 199.824C231.749 200.272 232.237 200.496 232.888 200.496C233.373 200.496 233.76 200.344 234.048 200.04C234.341 199.731 234.504 199.333 234.536 198.848H235.296C235.221 199.573 234.971 200.136 234.544 200.536C234.123 200.931 233.549 201.128 232.824 201.128C231.971 201.128 231.317 200.853 230.864 200.304C230.411 199.749 230.184 199.035 230.184 198.16C230.184 197.291 230.421 196.573 230.896 196.008C231.376 195.437 232.04 195.152 232.888 195.152C233.507 195.152 234.032 195.315 234.464 195.64C234.901 195.96 235.16 196.416 235.24 197.008H234.48Z" fill="black"/>
<rect x="208" y="186" width="33" height="25" stroke="black"/>
<rect x="241" y="186" width="42" height="25" fill="#D9D9D9"/>
<path d="M248.401 195.288H249.161V200.36H252.185V201H248.401V195.288ZM253.599 197.792C253.353 198.069 253.231 198.451 253.231 198.936C253.231 199.421 253.353 199.803 253.599 200.08C253.844 200.357 254.151 200.496 254.519 200.496C254.887 200.496 255.193 200.357 255.439 200.08C255.684 199.803 255.807 199.421 255.807 198.936C255.807 198.451 255.684 198.069 255.439 197.792C255.193 197.509 254.887 197.368 254.519 197.368C254.151 197.368 253.844 197.509 253.599 197.792ZM252.511 198.936C252.511 198.301 252.687 197.781 253.039 197.376C253.391 196.971 253.884 196.768 254.519 196.768C255.153 196.768 255.647 196.971 255.999 197.376C256.351 197.781 256.527 198.301 256.527 198.936C256.527 199.565 256.351 200.083 255.999 200.488C255.647 200.888 255.153 201.088 254.519 201.088C253.884 201.088 253.391 200.888 253.039 200.488C252.687 200.083 252.511 199.565 252.511 198.936ZM258.624 200.544C258.87 200.544 259.107 200.485 259.336 200.368C259.731 200.181 259.928 199.872 259.928 199.44V198.872C259.758 198.979 259.512 199.051 259.192 199.088L258.768 199.144C258.518 199.176 258.326 199.229 258.192 199.304C257.979 199.421 257.872 199.616 257.872 199.888C257.872 200.085 257.944 200.245 258.088 200.368C258.232 200.485 258.411 200.544 258.624 200.544ZM258.456 198.608L259.576 198.464C259.736 198.443 259.843 198.376 259.896 198.264C259.928 198.2 259.944 198.109 259.944 197.992C259.944 197.539 259.616 197.312 258.96 197.312C258.587 197.312 258.326 197.411 258.176 197.608C258.091 197.709 258.035 197.872 258.008 198.096H257.352C257.358 197.579 257.523 197.219 257.848 197.016C258.179 196.813 258.555 196.712 258.976 196.712C259.467 196.712 259.864 196.808 260.168 197C260.478 197.181 260.632 197.472 260.632 197.872V200.28C260.632 200.36 260.648 200.421 260.68 200.464C260.712 200.501 260.774 200.52 260.864 200.52C260.891 200.52 260.968 200.515 261.096 200.504V201.016C260.931 201.064 260.768 201.088 260.608 201.088C260.368 201.088 260.192 201.003 260.08 200.832C260.027 200.741 259.987 200.613 259.96 200.448C259.806 200.645 259.592 200.811 259.32 200.944C259.054 201.077 258.766 201.144 258.456 201.144C258.072 201.144 257.755 201.027 257.504 200.792C257.259 200.552 257.136 200.256 257.136 199.904C257.136 199.525 257.254 199.227 257.488 199.008C257.723 198.789 258.046 198.656 258.456 198.608ZM258.84 202.312V201.496H259.576V202.312H258.84ZM262.494 196.12H261.814V195.288H262.494V196.12ZM261.814 196.864H262.494V201H261.814V196.864ZM265.886 195.288H266.646V197.744H269.654V195.288H270.414V201H269.654V198.384H266.646V201H265.886V195.288ZM272.419 198.024H273.907C274.739 198.029 275.155 197.68 275.155 196.976C275.155 196.277 274.739 195.928 273.907 195.928H272.419V198.024ZM271.659 195.288H274.163C274.734 195.288 275.168 195.435 275.467 195.728C275.766 196.021 275.915 196.437 275.915 196.976C275.915 197.515 275.766 197.933 275.467 198.232C275.168 198.525 274.734 198.669 274.163 198.664H272.419V201H271.659V195.288Z" fill="black"/>
<rect x="241" y="186" width="42" height="25" stroke="black"/>
<rect x="283" y="186" width="30" height="25" fill="#D9D9D9"/>
<path d="M292.608 195.928H290.704V195.288H295.272V195.928H293.368V201H292.608V195.928ZM295.793 195.288H296.473V197.472H296.489C296.585 197.237 296.756 197.061 297.001 196.944C297.252 196.827 297.516 196.768 297.793 196.768C298.305 196.768 298.671 196.901 298.889 197.168C299.108 197.429 299.217 197.8 299.217 198.28V201H298.537V198.2C298.537 197.944 298.463 197.741 298.313 197.592C298.164 197.443 297.959 197.368 297.697 197.368C297.297 197.368 296.993 197.488 296.785 197.728C296.577 197.963 296.473 198.275 296.473 198.664V201H295.793V195.288ZM300.223 196.816H300.943V199.592C300.943 199.811 300.977 199.987 301.047 200.12C301.169 200.371 301.401 200.496 301.743 200.496C302.233 200.496 302.567 200.275 302.743 199.832C302.844 199.608 302.895 199.288 302.895 198.872V196.816H303.591V197.424C303.623 197.424 303.681 197.419 303.767 197.408C303.889 197.403 304.001 197.379 304.103 197.336L304.151 197.312L304.191 197.28L304.031 196.888L304.815 196.56L305.135 197.336L304.399 197.64C304.132 197.757 303.863 197.811 303.591 197.8V201H302.927L302.935 200.384C302.844 200.549 302.732 200.683 302.599 200.784C302.332 201.003 302.007 201.112 301.623 201.112C301.02 201.112 300.612 200.912 300.399 200.512C300.281 200.299 300.223 200.016 300.223 199.664V196.816ZM302.015 195.208H302.887L301.839 196.336H301.303L302.015 195.208Z" fill="black"/>
<rect x="283" y="186" width="30" height="25" stroke="black"/>
<rect x="313" y="186" width="88" height="25" fill="#D9D9D9"/>
<path d="M318.92 190.928H317.016V190.288H321.584V190.928H319.68V196H318.92V190.928ZM322.826 191.12H322.146V190.288H322.826V191.12ZM322.146 191.864H322.826V196H322.146V191.864ZM327.127 192.472C327.266 192.696 327.359 192.941 327.407 193.208C327.45 193.421 327.471 193.731 327.471 194.136H324.399C324.437 195.069 324.829 195.536 325.575 195.536C325.949 195.536 326.242 195.416 326.455 195.176C326.573 195.043 326.661 194.88 326.719 194.688H327.407C327.391 194.843 327.33 195.016 327.223 195.208C327.122 195.395 327.007 195.547 326.879 195.664C326.661 195.877 326.397 196.019 326.087 196.088C325.906 196.131 325.717 196.152 325.519 196.152C324.997 196.152 324.554 195.963 324.191 195.584C323.829 195.195 323.647 194.664 323.647 193.992C323.647 193.325 323.829 192.779 324.191 192.352C324.559 191.931 325.037 191.72 325.623 191.72C325.922 191.72 326.21 191.789 326.487 191.928C326.765 192.067 326.978 192.248 327.127 192.472ZM324.423 193.576H326.743C326.722 193.277 326.655 193.032 326.543 192.84C326.351 192.504 326.031 192.336 325.583 192.336C325.258 192.336 324.986 192.453 324.767 192.688C324.543 192.928 324.429 193.224 324.423 193.576ZM325.111 190.2H325.855L326.647 191.328H326.007L325.479 190.576L324.951 191.328H324.319L325.111 190.2ZM326.799 189.448H327.663L326.623 190.576H326.079L326.799 189.448ZM329.269 191.864H330.093V192.464H329.269V195.032C329.269 195.192 329.301 195.293 329.365 195.336C329.429 195.379 329.567 195.4 329.781 195.4H330.093V196H329.573C329.205 196 328.949 195.941 328.805 195.824C328.661 195.701 328.589 195.459 328.589 195.096V192.464H327.885V191.864H328.589V190.624H329.269V191.864ZM319.848 206H319.168V201.936H317.696V201.392C318.661 201.392 319.205 201.037 319.328 200.328H319.848V206ZM321.797 202.336C321.765 201.749 321.912 201.269 322.237 200.896C322.568 200.517 323.029 200.328 323.621 200.328C324.133 200.328 324.557 200.472 324.893 200.76C325.229 201.048 325.397 201.448 325.397 201.96C325.397 202.2 325.36 202.419 325.285 202.616C325.216 202.813 325.107 202.992 324.957 203.152C324.813 203.307 324.675 203.437 324.541 203.544C324.408 203.651 324.235 203.771 324.021 203.904C323.995 203.92 323.896 203.979 323.725 204.08C323.56 204.176 323.456 204.24 323.413 204.272C323.371 204.299 323.283 204.357 323.149 204.448C323.016 204.533 322.925 204.603 322.877 204.656C322.829 204.709 322.765 204.781 322.685 204.872C322.605 204.957 322.547 205.043 322.509 205.128C322.472 205.213 322.445 205.304 322.429 205.4H325.341V206H321.637C321.664 205.68 321.72 205.397 321.805 205.152C321.896 204.901 322.021 204.688 322.181 204.512C322.341 204.331 322.496 204.181 322.645 204.064C322.8 203.947 322.995 203.819 323.229 203.68C323.779 203.339 324.157 203.056 324.365 202.832C324.573 202.608 324.677 202.315 324.677 201.952C324.677 201.648 324.571 201.403 324.357 201.216C324.149 201.024 323.891 200.928 323.581 200.928C323.213 200.928 322.933 201.069 322.741 201.352C322.555 201.629 322.467 201.957 322.477 202.336H321.797ZM327.635 202.76C327.651 202.765 327.675 202.768 327.707 202.768H327.787H327.931C328.235 202.768 328.491 202.688 328.699 202.528C328.907 202.363 329.011 202.133 329.011 201.84C329.011 201.547 328.917 201.323 328.731 201.168C328.544 201.008 328.301 200.928 328.003 200.928C327.651 200.928 327.384 201.045 327.203 201.28C327.021 201.509 326.931 201.803 326.931 202.16H326.251C326.272 201.6 326.432 201.155 326.731 200.824C327.029 200.493 327.453 200.328 328.003 200.328C328.52 200.328 328.936 200.456 329.251 200.712C329.571 200.968 329.731 201.347 329.731 201.848C329.731 202.099 329.659 202.325 329.515 202.528C329.371 202.725 329.181 202.875 328.947 202.976V202.992C329.283 203.067 329.536 203.227 329.707 203.472C329.883 203.717 329.971 204.016 329.971 204.368C329.971 204.912 329.784 205.336 329.411 205.64C329.043 205.939 328.579 206.088 328.019 206.088C327.432 206.088 326.968 205.928 326.627 205.608C326.285 205.283 326.12 204.829 326.131 204.248H326.811C326.821 204.627 326.931 204.931 327.139 205.16C327.347 205.384 327.64 205.496 328.019 205.496C328.365 205.496 328.656 205.397 328.891 205.2C329.131 204.997 329.251 204.731 329.251 204.4C329.251 204.059 329.136 203.792 328.907 203.6C328.683 203.408 328.395 203.312 328.043 203.312C327.899 203.312 327.763 203.32 327.635 203.336V202.76ZM333.048 204.072V201.296H333.032L331.144 204.072H333.048ZM333.688 204.072H334.456V204.672H333.688V206H333.048V204.672H330.56V204.016L333.144 200.328H333.688V204.072ZM338.541 201.024H336.253L335.949 202.656L335.965 202.672C336.205 202.4 336.557 202.264 337.021 202.264C337.555 202.264 337.992 202.432 338.333 202.768C338.68 203.104 338.853 203.584 338.853 204.208C338.853 204.725 338.677 205.168 338.325 205.536C337.979 205.904 337.493 206.088 336.869 206.088C336.357 206.088 335.931 205.944 335.589 205.656C335.248 205.368 335.072 204.973 335.061 204.472H335.741C335.763 204.771 335.883 205.016 336.101 205.208C336.32 205.4 336.597 205.496 336.933 205.496C337.275 205.496 337.56 205.379 337.789 205.144C338.019 204.909 338.133 204.579 338.133 204.152C338.133 203.779 338.013 203.472 337.773 203.232C337.539 202.987 337.232 202.864 336.853 202.864C336.443 202.864 336.091 203.043 335.797 203.4L335.213 203.368L335.741 200.424H338.541V201.024ZM342.539 201.776C342.507 201.515 342.405 201.309 342.235 201.16C342.069 201.005 341.853 200.928 341.587 200.928C341.368 200.928 341.173 200.976 341.003 201.072C340.837 201.168 340.707 201.288 340.611 201.432C340.515 201.576 340.435 201.749 340.371 201.952C340.312 202.155 340.272 202.344 340.251 202.52C340.229 202.696 340.216 202.883 340.211 203.08L340.227 203.096C340.531 202.6 341.003 202.352 341.643 202.352C342.176 202.352 342.597 202.525 342.907 202.872C343.221 203.213 343.379 203.653 343.379 204.192C343.379 204.416 343.344 204.635 343.275 204.848C343.211 205.056 343.109 205.256 342.971 205.448C342.832 205.64 342.635 205.795 342.379 205.912C342.123 206.029 341.824 206.088 341.483 206.088C340.181 206.088 339.531 205.181 339.531 203.368C339.531 202.952 339.565 202.573 339.635 202.232C339.704 201.885 339.813 201.565 339.963 201.272C340.117 200.973 340.333 200.741 340.611 200.576C340.893 200.411 341.229 200.328 341.619 200.328C342.088 200.328 342.461 200.453 342.739 200.704C343.016 200.949 343.176 201.307 343.219 201.776H342.539ZM341.515 202.952C341.147 202.952 340.859 203.075 340.651 203.32C340.443 203.56 340.339 203.864 340.339 204.232C340.339 204.595 340.443 204.896 340.651 205.136C340.864 205.376 341.152 205.496 341.515 205.496C341.867 205.496 342.144 205.376 342.347 205.136C342.555 204.891 342.659 204.592 342.659 204.24C342.659 203.867 342.56 203.56 342.363 203.32C342.171 203.075 341.888 202.952 341.515 202.952ZM347.744 201.008C347.168 201.573 346.675 202.328 346.264 203.272C345.853 204.211 345.621 205.12 345.568 206H344.808C344.872 205.077 345.104 204.189 345.504 203.336C345.909 202.483 346.424 201.725 347.048 201.064H344.072V200.424H347.744V201.008ZM349.357 201.8C349.357 202.093 349.451 202.32 349.637 202.48C349.829 202.635 350.072 202.712 350.365 202.712C350.643 202.712 350.867 202.632 351.037 202.472C351.213 202.307 351.301 202.083 351.301 201.8C351.301 201.523 351.213 201.309 351.037 201.16C350.867 201.005 350.637 200.928 350.349 200.928C350.067 200.928 349.829 201.005 349.637 201.16C349.451 201.315 349.357 201.528 349.357 201.8ZM348.637 201.776C348.637 201.333 348.8 200.981 349.125 200.72C349.451 200.459 349.843 200.328 350.301 200.328C350.877 200.328 351.307 200.469 351.589 200.752C351.877 201.029 352.021 201.371 352.021 201.776C352.021 202.032 351.949 202.267 351.805 202.48C351.667 202.688 351.477 202.845 351.237 202.952C351.909 203.165 352.245 203.637 352.245 204.368C352.245 204.907 352.067 205.328 351.709 205.632C351.357 205.936 350.909 206.088 350.365 206.088C349.795 206.088 349.331 205.941 348.973 205.648C348.616 205.355 348.437 204.928 348.437 204.368C348.437 204.032 348.523 203.741 348.693 203.496C348.864 203.245 349.109 203.064 349.429 202.952C349.189 202.856 348.997 202.701 348.853 202.488C348.709 202.269 348.637 202.032 348.637 201.776ZM349.157 204.4C349.157 204.736 349.269 205.003 349.493 205.2C349.717 205.397 350.008 205.496 350.365 205.496C350.701 205.496 350.979 205.392 351.197 205.184C351.416 204.976 351.525 204.712 351.525 204.392C351.525 204.088 351.411 203.832 351.181 203.624C350.952 203.416 350.677 203.312 350.357 203.312C350.016 203.312 349.731 203.413 349.501 203.616C349.272 203.813 349.157 204.075 349.157 204.4ZM353.635 204.632C353.661 204.899 353.771 205.109 353.963 205.264C354.16 205.419 354.397 205.496 354.674 205.496C355.491 205.496 355.917 204.765 355.955 203.304L355.939 203.288C355.811 203.528 355.629 203.72 355.395 203.864C355.16 204.003 354.904 204.072 354.627 204.072C354.056 204.072 353.613 203.899 353.299 203.552C352.989 203.205 352.835 202.747 352.835 202.176C352.835 201.632 353.008 201.189 353.355 200.848C353.701 200.501 354.149 200.328 354.699 200.328C355.995 200.328 356.643 201.232 356.643 203.04C356.643 205.072 355.987 206.088 354.674 206.088C354.184 206.088 353.784 205.965 353.475 205.72C353.171 205.475 352.997 205.112 352.955 204.632H353.635ZM355.835 202.224C355.835 201.856 355.731 201.549 355.523 201.304C355.315 201.053 355.029 200.928 354.667 200.928C354.288 200.928 354.008 201.056 353.827 201.312C353.645 201.568 353.555 201.888 353.555 202.272C353.555 202.592 353.661 202.872 353.875 203.112C354.088 203.352 354.355 203.472 354.674 203.472C355.021 203.472 355.301 203.352 355.515 203.112C355.728 202.867 355.835 202.571 355.835 202.224ZM358.064 203.208C358.064 203.405 358.066 203.563 358.072 203.68C358.077 203.797 358.088 203.96 358.104 204.168C358.125 204.376 358.16 204.547 358.208 204.68C358.261 204.808 358.328 204.941 358.408 205.08C358.493 205.219 358.605 205.323 358.744 205.392C358.882 205.461 359.045 205.496 359.232 205.496C359.418 205.496 359.581 205.461 359.72 205.392C359.858 205.323 359.968 205.219 360.048 205.08C360.133 204.941 360.2 204.808 360.248 204.68C360.301 204.547 360.336 204.376 360.352 204.168C360.373 203.96 360.386 203.797 360.392 203.68C360.397 203.563 360.4 203.405 360.4 203.208C360.4 203.016 360.397 202.861 360.392 202.744C360.386 202.621 360.373 202.459 360.352 202.256C360.336 202.048 360.301 201.877 360.248 201.744C360.2 201.611 360.133 201.477 360.048 201.344C359.968 201.205 359.858 201.101 359.72 201.032C359.581 200.963 359.418 200.928 359.232 200.928C359.045 200.928 358.882 200.963 358.744 201.032C358.605 201.101 358.493 201.205 358.408 201.344C358.328 201.477 358.261 201.611 358.208 201.744C358.16 201.877 358.125 202.048 358.104 202.256C358.088 202.459 358.077 202.621 358.072 202.744C358.066 202.861 358.064 203.016 358.064 203.208ZM357.36 203.872C357.349 203.685 357.344 203.467 357.344 203.216C357.344 202.965 357.349 202.749 357.36 202.568C357.376 202.381 357.402 202.165 357.44 201.92C357.477 201.675 357.538 201.467 357.624 201.296C357.709 201.125 357.818 200.963 357.952 200.808C358.085 200.648 358.258 200.528 358.472 200.448C358.69 200.368 358.944 200.328 359.232 200.328C359.52 200.328 359.77 200.368 359.984 200.448C360.202 200.528 360.378 200.648 360.512 200.808C360.645 200.963 360.754 201.125 360.84 201.296C360.925 201.467 360.986 201.675 361.024 201.92C361.061 202.165 361.085 202.381 361.096 202.568C361.112 202.749 361.12 202.965 361.12 203.216C361.12 203.467 361.112 203.685 361.096 203.872C361.085 204.059 361.061 204.275 361.024 204.52C360.986 204.76 360.925 204.965 360.84 205.136C360.754 205.301 360.645 205.461 360.512 205.616C360.378 205.771 360.202 205.888 359.984 205.968C359.77 206.048 359.52 206.088 359.232 206.088C358.944 206.088 358.69 206.048 358.472 205.968C358.258 205.888 358.085 205.771 357.952 205.616C357.818 205.461 357.709 205.301 357.624 205.136C357.538 204.965 357.477 204.76 357.44 204.52C357.402 204.275 357.376 204.059 357.36 203.872ZM364.301 206H363.621V201.936H362.149V201.392C363.114 201.392 363.658 201.037 363.781 200.328H364.301V206ZM366.25 202.336C366.218 201.749 366.365 201.269 366.69 200.896C367.021 200.517 367.482 200.328 368.074 200.328C368.586 200.328 369.01 200.472 369.346 200.76C369.682 201.048 369.85 201.448 369.85 201.96C369.85 202.2 369.813 202.419 369.738 202.616C369.669 202.813 369.56 202.992 369.41 203.152C369.266 203.307 369.128 203.437 368.994 203.544C368.861 203.651 368.688 203.771 368.474 203.904C368.448 203.92 368.349 203.979 368.178 204.08C368.013 204.176 367.909 204.24 367.866 204.272C367.824 204.299 367.736 204.357 367.602 204.448C367.469 204.533 367.378 204.603 367.33 204.656C367.282 204.709 367.218 204.781 367.138 204.872C367.058 204.957 367 205.043 366.962 205.128C366.925 205.213 366.898 205.304 366.882 205.4H369.794V206H366.09C366.117 205.68 366.173 205.397 366.258 205.152C366.349 204.901 366.474 204.688 366.634 204.512C366.794 204.331 366.949 204.181 367.098 204.064C367.253 203.947 367.448 203.819 367.682 203.68C368.232 203.339 368.61 203.056 368.818 202.832C369.026 202.608 369.13 202.315 369.13 201.952C369.13 201.648 369.024 201.403 368.81 201.216C368.602 201.024 368.344 200.928 368.034 200.928C367.666 200.928 367.386 201.069 367.194 201.352C367.008 201.629 366.92 201.957 366.93 202.336H366.25ZM372.088 202.76C372.104 202.765 372.128 202.768 372.16 202.768H372.24H372.384C372.688 202.768 372.944 202.688 373.152 202.528C373.36 202.363 373.464 202.133 373.464 201.84C373.464 201.547 373.37 201.323 373.184 201.168C372.997 201.008 372.754 200.928 372.456 200.928C372.104 200.928 371.837 201.045 371.656 201.28C371.474 201.509 371.384 201.803 371.384 202.16H370.704C370.725 201.6 370.885 201.155 371.184 200.824C371.482 200.493 371.906 200.328 372.456 200.328C372.973 200.328 373.389 200.456 373.704 200.712C374.024 200.968 374.184 201.347 374.184 201.848C374.184 202.099 374.112 202.325 373.968 202.528C373.824 202.725 373.634 202.875 373.4 202.976V202.992C373.736 203.067 373.989 203.227 374.16 203.472C374.336 203.717 374.424 204.016 374.424 204.368C374.424 204.912 374.237 205.336 373.864 205.64C373.496 205.939 373.032 206.088 372.472 206.088C371.885 206.088 371.421 205.928 371.08 205.608C370.738 205.283 370.573 204.829 370.584 204.248H371.264C371.274 204.627 371.384 204.931 371.592 205.16C371.8 205.384 372.093 205.496 372.472 205.496C372.818 205.496 373.109 205.397 373.344 205.2C373.584 204.997 373.704 204.731 373.704 204.4C373.704 204.059 373.589 203.792 373.36 203.6C373.136 203.408 372.848 203.312 372.496 203.312C372.352 203.312 372.216 203.32 372.088 203.336V202.76ZM377.501 204.072V201.296H377.485L375.597 204.072H377.501ZM378.141 204.072H378.909V204.672H378.141V206H377.501V204.672H375.013V204.016L377.597 200.328H378.141V204.072ZM382.994 201.024H380.706L380.402 202.656L380.418 202.672C380.658 202.4 381.01 202.264 381.474 202.264C382.008 202.264 382.445 202.432 382.786 202.768C383.133 203.104 383.306 203.584 383.306 204.208C383.306 204.725 383.13 205.168 382.778 205.536C382.432 205.904 381.946 206.088 381.322 206.088C380.81 206.088 380.384 205.944 380.042 205.656C379.701 205.368 379.525 204.973 379.514 204.472H380.194C380.216 204.771 380.336 205.016 380.554 205.208C380.773 205.4 381.05 205.496 381.386 205.496C381.728 205.496 382.013 205.379 382.242 205.144C382.472 204.909 382.586 204.579 382.586 204.152C382.586 203.779 382.466 203.472 382.226 203.232C381.992 202.987 381.685 202.864 381.306 202.864C380.896 202.864 380.544 203.043 380.25 203.4L379.666 203.368L380.194 200.424H382.994V201.024ZM386.992 201.776C386.96 201.515 386.858 201.309 386.688 201.16C386.522 201.005 386.306 200.928 386.04 200.928C385.821 200.928 385.626 200.976 385.456 201.072C385.29 201.168 385.16 201.288 385.064 201.432C384.968 201.576 384.888 201.749 384.824 201.952C384.765 202.155 384.725 202.344 384.704 202.52C384.682 202.696 384.669 202.883 384.664 203.08L384.68 203.096C384.984 202.6 385.456 202.352 386.096 202.352C386.629 202.352 387.05 202.525 387.36 202.872C387.674 203.213 387.832 203.653 387.832 204.192C387.832 204.416 387.797 204.635 387.728 204.848C387.664 205.056 387.562 205.256 387.424 205.448C387.285 205.64 387.088 205.795 386.832 205.912C386.576 206.029 386.277 206.088 385.936 206.088C384.634 206.088 383.984 205.181 383.984 203.368C383.984 202.952 384.018 202.573 384.088 202.232C384.157 201.885 384.266 201.565 384.416 201.272C384.57 200.973 384.786 200.741 385.064 200.576C385.346 200.411 385.682 200.328 386.072 200.328C386.541 200.328 386.914 200.453 387.192 200.704C387.469 200.949 387.629 201.307 387.672 201.776H386.992ZM385.968 202.952C385.6 202.952 385.312 203.075 385.104 203.32C384.896 203.56 384.792 203.864 384.792 204.232C384.792 204.595 384.896 204.896 385.104 205.136C385.317 205.376 385.605 205.496 385.968 205.496C386.32 205.496 386.597 205.376 386.8 205.136C387.008 204.891 387.112 204.592 387.112 204.24C387.112 203.867 387.013 203.56 386.816 203.32C386.624 203.075 386.341 202.952 385.968 202.952Z" fill="black"/>
<rect x="313" y="186" width="88" height="25" stroke="black"/>
<rect x="401" y="186" width="37" height="25" fill="#D9D9D9"/>
<path d="M409.251 198.024H410.739C411.571 198.029 411.987 197.68 411.987 196.976C411.987 196.277 411.571 195.928 410.739 195.928H409.251V198.024ZM408.491 195.288H410.995C411.566 195.288 412.001 195.435 412.299 195.728C412.598 196.021 412.747 196.437 412.747 196.976C412.747 197.515 412.598 197.933 412.299 198.232C412.001 198.525 411.566 198.669 410.995 198.664H409.251V201H408.491V195.288ZM413.567 195.288H414.247V197.472H414.263C414.359 197.237 414.529 197.061 414.775 196.944C415.025 196.827 415.289 196.768 415.567 196.768C416.079 196.768 416.444 196.901 416.663 197.168C416.881 197.429 416.991 197.8 416.991 198.28V201H416.311V198.2C416.311 197.944 416.236 197.741 416.087 197.592C415.937 197.443 415.732 197.368 415.471 197.368C415.071 197.368 414.767 197.488 414.559 197.728C414.351 197.963 414.247 198.275 414.247 198.664V201H413.567V195.288ZM418.724 195.152H419.596L420.284 196.296H419.772L418.724 195.152ZM418.876 197.792C418.631 198.069 418.508 198.451 418.508 198.936C418.508 199.421 418.631 199.803 418.876 200.08C419.121 200.357 419.428 200.496 419.796 200.496C420.164 200.496 420.471 200.357 420.716 200.08C420.961 199.803 421.084 199.421 421.084 198.936C421.084 198.451 420.961 198.069 420.716 197.792C420.471 197.509 420.164 197.368 419.796 197.368C419.428 197.368 419.121 197.509 418.876 197.792ZM417.788 198.936C417.788 198.301 417.964 197.781 418.316 197.376C418.668 196.971 419.161 196.768 419.796 196.768C420.431 196.768 420.924 196.971 421.276 197.376C421.628 197.781 421.804 198.301 421.804 198.936C421.804 199.565 421.628 200.083 421.276 200.488C420.924 200.888 420.431 201.088 419.796 201.088C419.161 201.088 418.668 200.888 418.316 200.488C417.964 200.083 417.788 199.565 417.788 198.936ZM422.606 196.864H423.246V197.52H423.262C423.539 197.019 423.987 196.768 424.606 196.768C425.118 196.768 425.483 196.901 425.702 197.168C425.92 197.429 426.03 197.8 426.03 198.28V201H425.35V198.2C425.35 197.944 425.275 197.741 425.126 197.592C424.976 197.443 424.771 197.368 424.51 197.368C424.11 197.368 423.806 197.488 423.598 197.728C423.39 197.963 423.286 198.275 423.286 198.664V201H422.606V196.864ZM430.619 200.648C430.619 201.331 430.462 201.837 430.147 202.168C429.838 202.504 429.355 202.672 428.699 202.672C428.416 202.672 428.155 202.635 427.915 202.56C427.675 202.485 427.462 202.352 427.275 202.16C427.094 201.973 426.998 201.739 426.987 201.456H427.667C427.678 201.68 427.792 201.848 428.011 201.96C428.235 202.072 428.478 202.128 428.739 202.128C429.166 202.128 429.478 201.989 429.675 201.712C429.878 201.435 429.979 201.053 429.979 200.568V200.296H429.963C429.851 200.541 429.678 200.728 429.443 200.856C429.214 200.979 428.958 201.04 428.675 201.04C428.088 201.04 427.632 200.843 427.307 200.448C426.987 200.048 426.827 199.549 426.827 198.952C426.827 198.691 426.859 198.437 426.923 198.192C426.992 197.947 427.096 197.715 427.235 197.496C427.379 197.277 427.579 197.101 427.835 196.968C428.096 196.835 428.398 196.768 428.739 196.768C429.31 196.768 429.72 196.997 429.971 197.456H429.979V196.864H430.619V200.648ZM428.715 200.448C429.131 200.448 429.44 200.291 429.643 199.976C429.846 199.661 429.947 199.285 429.947 198.848C429.947 198.437 429.848 198.088 429.651 197.8C429.459 197.512 429.166 197.368 428.771 197.368C428.36 197.368 428.054 197.512 427.851 197.8C427.648 198.083 427.547 198.44 427.547 198.872C427.547 199.144 427.579 199.392 427.643 199.616C427.712 199.84 427.838 200.035 428.019 200.2C428.2 200.365 428.432 200.448 428.715 200.448Z" fill="black"/>
<rect x="401" y="186" width="37" height="25" stroke="black"/>
<rect x="438" y="186" width="105" height="25" fill="#D9D9D9"/>
<path d="M443.92 190.928H442.016V190.288H446.584V190.928H444.68V196H443.92V190.928ZM449.795 196H449.155V195.344H449.139C448.862 195.84 448.414 196.088 447.795 196.088C447.278 196.088 446.91 195.957 446.691 195.696C446.478 195.435 446.371 195.064 446.371 194.584V191.864H447.051V194.664C447.051 194.92 447.126 195.123 447.275 195.272C447.425 195.421 447.63 195.496 447.891 195.496C448.291 195.496 448.595 195.379 448.803 195.144C449.011 194.904 449.115 194.589 449.115 194.2V191.864H449.795V196ZM452.113 195.544C452.358 195.544 452.595 195.485 452.825 195.368C453.219 195.181 453.417 194.872 453.417 194.44V193.872C453.246 193.979 453.001 194.051 452.681 194.088L452.257 194.144C452.006 194.176 451.814 194.229 451.681 194.304C451.467 194.421 451.361 194.616 451.361 194.888C451.361 195.085 451.433 195.245 451.577 195.368C451.721 195.485 451.899 195.544 452.113 195.544ZM451.945 193.608L453.065 193.464C453.225 193.443 453.331 193.376 453.385 193.264C453.417 193.2 453.433 193.109 453.433 192.992C453.433 192.539 453.105 192.312 452.449 192.312C452.075 192.312 451.814 192.411 451.665 192.608C451.579 192.709 451.523 192.872 451.497 193.096H450.841C450.846 192.579 451.011 192.219 451.337 192.016C451.667 191.813 452.043 191.712 452.465 191.712C452.955 191.712 453.353 191.808 453.657 192C453.966 192.181 454.121 192.472 454.121 192.872V195.28C454.121 195.36 454.137 195.421 454.169 195.464C454.201 195.501 454.262 195.52 454.353 195.52C454.379 195.52 454.457 195.515 454.585 195.504V196.016C454.419 196.064 454.257 196.088 454.097 196.088C453.857 196.088 453.681 196.003 453.569 195.832C453.515 195.741 453.475 195.613 453.449 195.448C453.294 195.645 453.081 195.811 452.809 195.944C452.542 196.077 452.254 196.144 451.945 196.144C451.561 196.144 451.243 196.027 450.993 195.792C450.747 195.552 450.625 195.256 450.625 194.904C450.625 194.525 450.742 194.227 450.977 194.008C451.211 193.789 451.534 193.656 451.945 193.608ZM452.113 190.28H452.857L453.649 191.408H453.009L452.481 190.664L451.961 191.408H451.321L452.113 190.28ZM450.969 189.528L451.681 190.656H451.145L450.097 189.528H450.969ZM455.262 191.864H455.902V192.52H455.918C456.195 192.019 456.643 191.768 457.262 191.768C457.774 191.768 458.139 191.901 458.358 192.168C458.577 192.429 458.686 192.8 458.686 193.28V196H458.006V193.2C458.006 192.944 457.931 192.741 457.782 192.592C457.633 192.443 457.427 192.368 457.166 192.368C456.766 192.368 456.462 192.488 456.254 192.728C456.046 192.963 455.942 193.275 455.942 193.664V196H455.262V191.864ZM444.848 206H444.168V201.936H442.696V201.392C443.661 201.392 444.205 201.037 444.328 200.328H444.848V206ZM446.797 202.336C446.765 201.749 446.912 201.269 447.237 200.896C447.568 200.517 448.029 200.328 448.621 200.328C449.133 200.328 449.557 200.472 449.893 200.76C450.229 201.048 450.397 201.448 450.397 201.96C450.397 202.2 450.36 202.419 450.285 202.616C450.216 202.813 450.107 202.992 449.957 203.152C449.813 203.307 449.675 203.437 449.541 203.544C449.408 203.651 449.235 203.771 449.021 203.904C448.995 203.92 448.896 203.979 448.725 204.08C448.56 204.176 448.456 204.24 448.413 204.272C448.371 204.299 448.283 204.357 448.149 204.448C448.016 204.533 447.925 204.603 447.877 204.656C447.829 204.709 447.765 204.781 447.685 204.872C447.605 204.957 447.547 205.043 447.509 205.128C447.472 205.213 447.445 205.304 447.429 205.4H450.341V206H446.637C446.664 205.68 446.72 205.397 446.805 205.152C446.896 204.901 447.021 204.688 447.181 204.512C447.341 204.331 447.496 204.181 447.645 204.064C447.8 203.947 447.995 203.819 448.229 203.68C448.779 203.339 449.157 203.056 449.365 202.832C449.573 202.608 449.677 202.315 449.677 201.952C449.677 201.648 449.571 201.403 449.357 201.216C449.149 201.024 448.891 200.928 448.581 200.928C448.213 200.928 447.933 201.069 447.741 201.352C447.555 201.629 447.467 201.957 447.477 202.336H446.797ZM452.635 202.76C452.651 202.765 452.675 202.768 452.707 202.768H452.787H452.931C453.235 202.768 453.491 202.688 453.699 202.528C453.907 202.363 454.011 202.133 454.011 201.84C454.011 201.547 453.917 201.323 453.731 201.168C453.544 201.008 453.301 200.928 453.003 200.928C452.651 200.928 452.384 201.045 452.203 201.28C452.021 201.509 451.931 201.803 451.931 202.16H451.251C451.272 201.6 451.432 201.155 451.731 200.824C452.029 200.493 452.453 200.328 453.003 200.328C453.52 200.328 453.936 200.456 454.251 200.712C454.571 200.968 454.731 201.347 454.731 201.848C454.731 202.099 454.659 202.325 454.515 202.528C454.371 202.725 454.181 202.875 453.947 202.976V202.992C454.283 203.067 454.536 203.227 454.707 203.472C454.883 203.717 454.971 204.016 454.971 204.368C454.971 204.912 454.784 205.336 454.411 205.64C454.043 205.939 453.579 206.088 453.019 206.088C452.432 206.088 451.968 205.928 451.627 205.608C451.285 205.283 451.12 204.829 451.131 204.248H451.811C451.821 204.627 451.931 204.931 452.139 205.16C452.347 205.384 452.64 205.496 453.019 205.496C453.365 205.496 453.656 205.397 453.891 205.2C454.131 204.997 454.251 204.731 454.251 204.4C454.251 204.059 454.136 203.792 453.907 203.6C453.683 203.408 453.395 203.312 453.043 203.312C452.899 203.312 452.763 203.32 452.635 203.336V202.76ZM458.048 204.072V201.296H458.032L456.144 204.072H458.048ZM458.688 204.072H459.456V204.672H458.688V206H458.048V204.672H455.56V204.016L458.144 200.328H458.688V204.072ZM463.541 201.024H461.253L460.949 202.656L460.965 202.672C461.205 202.4 461.557 202.264 462.021 202.264C462.555 202.264 462.992 202.432 463.333 202.768C463.68 203.104 463.853 203.584 463.853 204.208C463.853 204.725 463.677 205.168 463.325 205.536C462.979 205.904 462.493 206.088 461.869 206.088C461.357 206.088 460.931 205.944 460.589 205.656C460.248 205.368 460.072 204.973 460.061 204.472H460.741C460.763 204.771 460.883 205.016 461.101 205.208C461.32 205.4 461.597 205.496 461.933 205.496C462.275 205.496 462.56 205.379 462.789 205.144C463.019 204.909 463.133 204.579 463.133 204.152C463.133 203.779 463.013 203.472 462.773 203.232C462.539 202.987 462.232 202.864 461.853 202.864C461.443 202.864 461.091 203.043 460.797 203.4L460.213 203.368L460.741 200.424H463.541V201.024ZM467.539 201.776C467.507 201.515 467.405 201.309 467.235 201.16C467.069 201.005 466.853 200.928 466.587 200.928C466.368 200.928 466.173 200.976 466.003 201.072C465.837 201.168 465.707 201.288 465.611 201.432C465.515 201.576 465.435 201.749 465.371 201.952C465.312 202.155 465.272 202.344 465.251 202.52C465.229 202.696 465.216 202.883 465.211 203.08L465.227 203.096C465.531 202.6 466.003 202.352 466.643 202.352C467.176 202.352 467.597 202.525 467.907 202.872C468.221 203.213 468.379 203.653 468.379 204.192C468.379 204.416 468.344 204.635 468.275 204.848C468.211 205.056 468.109 205.256 467.971 205.448C467.832 205.64 467.635 205.795 467.379 205.912C467.123 206.029 466.824 206.088 466.483 206.088C465.181 206.088 464.531 205.181 464.531 203.368C464.531 202.952 464.565 202.573 464.635 202.232C464.704 201.885 464.813 201.565 464.963 201.272C465.117 200.973 465.333 200.741 465.611 200.576C465.893 200.411 466.229 200.328 466.619 200.328C467.088 200.328 467.461 200.453 467.739 200.704C468.016 200.949 468.176 201.307 468.219 201.776H467.539ZM466.515 202.952C466.147 202.952 465.859 203.075 465.651 203.32C465.443 203.56 465.339 203.864 465.339 204.232C465.339 204.595 465.443 204.896 465.651 205.136C465.864 205.376 466.152 205.496 466.515 205.496C466.867 205.496 467.144 205.376 467.347 205.136C467.555 204.891 467.659 204.592 467.659 204.24C467.659 203.867 467.56 203.56 467.363 203.32C467.171 203.075 466.888 202.952 466.515 202.952ZM472.744 201.008C472.168 201.573 471.675 202.328 471.264 203.272C470.853 204.211 470.621 205.12 470.568 206H469.808C469.872 205.077 470.104 204.189 470.504 203.336C470.909 202.483 471.424 201.725 472.048 201.064H469.072V200.424H472.744V201.008ZM474.357 201.8C474.357 202.093 474.451 202.32 474.637 202.48C474.829 202.635 475.072 202.712 475.365 202.712C475.643 202.712 475.867 202.632 476.037 202.472C476.213 202.307 476.301 202.083 476.301 201.8C476.301 201.523 476.213 201.309 476.037 201.16C475.867 201.005 475.637 200.928 475.349 200.928C475.067 200.928 474.829 201.005 474.637 201.16C474.451 201.315 474.357 201.528 474.357 201.8ZM473.637 201.776C473.637 201.333 473.8 200.981 474.125 200.72C474.451 200.459 474.843 200.328 475.301 200.328C475.877 200.328 476.307 200.469 476.589 200.752C476.877 201.029 477.021 201.371 477.021 201.776C477.021 202.032 476.949 202.267 476.805 202.48C476.667 202.688 476.477 202.845 476.237 202.952C476.909 203.165 477.245 203.637 477.245 204.368C477.245 204.907 477.067 205.328 476.709 205.632C476.357 205.936 475.909 206.088 475.365 206.088C474.795 206.088 474.331 205.941 473.973 205.648C473.616 205.355 473.437 204.928 473.437 204.368C473.437 204.032 473.523 203.741 473.693 203.496C473.864 203.245 474.109 203.064 474.429 202.952C474.189 202.856 473.997 202.701 473.853 202.488C473.709 202.269 473.637 202.032 473.637 201.776ZM474.157 204.4C474.157 204.736 474.269 205.003 474.493 205.2C474.717 205.397 475.008 205.496 475.365 205.496C475.701 205.496 475.979 205.392 476.197 205.184C476.416 204.976 476.525 204.712 476.525 204.392C476.525 204.088 476.411 203.832 476.181 203.624C475.952 203.416 475.677 203.312 475.357 203.312C475.016 203.312 474.731 203.413 474.501 203.616C474.272 203.813 474.157 204.075 474.157 204.4ZM478.635 204.632C478.661 204.899 478.771 205.109 478.963 205.264C479.16 205.419 479.397 205.496 479.674 205.496C480.491 205.496 480.917 204.765 480.955 203.304L480.939 203.288C480.811 203.528 480.629 203.72 480.395 203.864C480.16 204.003 479.904 204.072 479.627 204.072C479.056 204.072 478.613 203.899 478.299 203.552C477.989 203.205 477.835 202.747 477.835 202.176C477.835 201.632 478.008 201.189 478.355 200.848C478.701 200.501 479.149 200.328 479.699 200.328C480.995 200.328 481.643 201.232 481.643 203.04C481.643 205.072 480.987 206.088 479.674 206.088C479.184 206.088 478.784 205.965 478.475 205.72C478.171 205.475 477.997 205.112 477.955 204.632H478.635ZM480.835 202.224C480.835 201.856 480.731 201.549 480.523 201.304C480.315 201.053 480.029 200.928 479.667 200.928C479.288 200.928 479.008 201.056 478.827 201.312C478.645 201.568 478.555 201.888 478.555 202.272C478.555 202.592 478.661 202.872 478.875 203.112C479.088 203.352 479.355 203.472 479.674 203.472C480.021 203.472 480.301 203.352 480.515 203.112C480.728 202.867 480.835 202.571 480.835 202.224ZM483.064 203.208C483.064 203.405 483.066 203.563 483.072 203.68C483.077 203.797 483.088 203.96 483.104 204.168C483.125 204.376 483.16 204.547 483.208 204.68C483.261 204.808 483.328 204.941 483.408 205.08C483.493 205.219 483.605 205.323 483.744 205.392C483.882 205.461 484.045 205.496 484.232 205.496C484.418 205.496 484.581 205.461 484.72 205.392C484.858 205.323 484.968 205.219 485.048 205.08C485.133 204.941 485.2 204.808 485.248 204.68C485.301 204.547 485.336 204.376 485.352 204.168C485.373 203.96 485.386 203.797 485.392 203.68C485.397 203.563 485.4 203.405 485.4 203.208C485.4 203.016 485.397 202.861 485.392 202.744C485.386 202.621 485.373 202.459 485.352 202.256C485.336 202.048 485.301 201.877 485.248 201.744C485.2 201.611 485.133 201.477 485.048 201.344C484.968 201.205 484.858 201.101 484.72 201.032C484.581 200.963 484.418 200.928 484.232 200.928C484.045 200.928 483.882 200.963 483.744 201.032C483.605 201.101 483.493 201.205 483.408 201.344C483.328 201.477 483.261 201.611 483.208 201.744C483.16 201.877 483.125 202.048 483.104 202.256C483.088 202.459 483.077 202.621 483.072 202.744C483.066 202.861 483.064 203.016 483.064 203.208ZM482.36 203.872C482.349 203.685 482.344 203.467 482.344 203.216C482.344 202.965 482.349 202.749 482.36 202.568C482.376 202.381 482.402 202.165 482.44 201.92C482.477 201.675 482.538 201.467 482.624 201.296C482.709 201.125 482.818 200.963 482.952 200.808C483.085 200.648 483.258 200.528 483.472 200.448C483.69 200.368 483.944 200.328 484.232 200.328C484.52 200.328 484.77 200.368 484.984 200.448C485.202 200.528 485.378 200.648 485.512 200.808C485.645 200.963 485.754 201.125 485.84 201.296C485.925 201.467 485.986 201.675 486.024 201.92C486.061 202.165 486.085 202.381 486.096 202.568C486.112 202.749 486.12 202.965 486.12 203.216C486.12 203.467 486.112 203.685 486.096 203.872C486.085 204.059 486.061 204.275 486.024 204.52C485.986 204.76 485.925 204.965 485.84 205.136C485.754 205.301 485.645 205.461 485.512 205.616C485.378 205.771 485.202 205.888 484.984 205.968C484.77 206.048 484.52 206.088 484.232 206.088C483.944 206.088 483.69 206.048 483.472 205.968C483.258 205.888 483.085 205.771 482.952 205.616C482.818 205.461 482.709 205.301 482.624 205.136C482.538 204.965 482.477 204.76 482.44 204.52C482.402 204.275 482.376 204.059 482.36 203.872ZM489.301 206H488.621V201.936H487.149V201.392C488.114 201.392 488.658 201.037 488.781 200.328H489.301V206ZM491.25 202.336C491.218 201.749 491.365 201.269 491.69 200.896C492.021 200.517 492.482 200.328 493.074 200.328C493.586 200.328 494.01 200.472 494.346 200.76C494.682 201.048 494.85 201.448 494.85 201.96C494.85 202.2 494.813 202.419 494.738 202.616C494.669 202.813 494.56 202.992 494.41 203.152C494.266 203.307 494.128 203.437 493.994 203.544C493.861 203.651 493.688 203.771 493.474 203.904C493.448 203.92 493.349 203.979 493.178 204.08C493.013 204.176 492.909 204.24 492.866 204.272C492.824 204.299 492.736 204.357 492.602 204.448C492.469 204.533 492.378 204.603 492.33 204.656C492.282 204.709 492.218 204.781 492.138 204.872C492.058 204.957 492 205.043 491.962 205.128C491.925 205.213 491.898 205.304 491.882 205.4H494.794V206H491.09C491.117 205.68 491.173 205.397 491.258 205.152C491.349 204.901 491.474 204.688 491.634 204.512C491.794 204.331 491.949 204.181 492.098 204.064C492.253 203.947 492.448 203.819 492.682 203.68C493.232 203.339 493.61 203.056 493.818 202.832C494.026 202.608 494.13 202.315 494.13 201.952C494.13 201.648 494.024 201.403 493.81 201.216C493.602 201.024 493.344 200.928 493.034 200.928C492.666 200.928 492.386 201.069 492.194 201.352C492.008 201.629 491.92 201.957 491.93 202.336H491.25ZM497.088 202.76C497.104 202.765 497.128 202.768 497.16 202.768H497.24H497.384C497.688 202.768 497.944 202.688 498.152 202.528C498.36 202.363 498.464 202.133 498.464 201.84C498.464 201.547 498.37 201.323 498.184 201.168C497.997 201.008 497.754 200.928 497.456 200.928C497.104 200.928 496.837 201.045 496.656 201.28C496.474 201.509 496.384 201.803 496.384 202.16H495.704C495.725 201.6 495.885 201.155 496.184 200.824C496.482 200.493 496.906 200.328 497.456 200.328C497.973 200.328 498.389 200.456 498.704 200.712C499.024 200.968 499.184 201.347 499.184 201.848C499.184 202.099 499.112 202.325 498.968 202.528C498.824 202.725 498.634 202.875 498.4 202.976V202.992C498.736 203.067 498.989 203.227 499.16 203.472C499.336 203.717 499.424 204.016 499.424 204.368C499.424 204.912 499.237 205.336 498.864 205.64C498.496 205.939 498.032 206.088 497.472 206.088C496.885 206.088 496.421 205.928 496.08 205.608C495.738 205.283 495.573 204.829 495.584 204.248H496.264C496.274 204.627 496.384 204.931 496.592 205.16C496.8 205.384 497.093 205.496 497.472 205.496C497.818 205.496 498.109 205.397 498.344 205.2C498.584 204.997 498.704 204.731 498.704 204.4C498.704 204.059 498.589 203.792 498.36 203.6C498.136 203.408 497.848 203.312 497.496 203.312C497.352 203.312 497.216 203.32 497.088 203.336V202.76ZM502.501 204.072V201.296H502.485L500.597 204.072H502.501ZM503.141 204.072H503.909V204.672H503.141V206H502.501V204.672H500.013V204.016L502.597 200.328H503.141V204.072ZM507.994 201.024H505.706L505.402 202.656L505.418 202.672C505.658 202.4 506.01 202.264 506.474 202.264C507.008 202.264 507.445 202.432 507.786 202.768C508.133 203.104 508.306 203.584 508.306 204.208C508.306 204.725 508.13 205.168 507.778 205.536C507.432 205.904 506.946 206.088 506.322 206.088C505.81 206.088 505.384 205.944 505.042 205.656C504.701 205.368 504.525 204.973 504.514 204.472H505.194C505.216 204.771 505.336 205.016 505.554 205.208C505.773 205.4 506.05 205.496 506.386 205.496C506.728 205.496 507.013 205.379 507.242 205.144C507.472 204.909 507.586 204.579 507.586 204.152C507.586 203.779 507.466 203.472 507.226 203.232C506.992 202.987 506.685 202.864 506.306 202.864C505.896 202.864 505.544 203.043 505.25 203.4L504.666 203.368L505.194 200.424H507.994V201.024ZM511.992 201.776C511.96 201.515 511.858 201.309 511.688 201.16C511.522 201.005 511.306 200.928 511.04 200.928C510.821 200.928 510.626 200.976 510.456 201.072C510.29 201.168 510.16 201.288 510.064 201.432C509.968 201.576 509.888 201.749 509.824 201.952C509.765 202.155 509.725 202.344 509.704 202.52C509.682 202.696 509.669 202.883 509.664 203.08L509.68 203.096C509.984 202.6 510.456 202.352 511.096 202.352C511.629 202.352 512.05 202.525 512.36 202.872C512.674 203.213 512.832 203.653 512.832 204.192C512.832 204.416 512.797 204.635 512.728 204.848C512.664 205.056 512.562 205.256 512.424 205.448C512.285 205.64 512.088 205.795 511.832 205.912C511.576 206.029 511.277 206.088 510.936 206.088C509.634 206.088 508.984 205.181 508.984 203.368C508.984 202.952 509.018 202.573 509.088 202.232C509.157 201.885 509.266 201.565 509.416 201.272C509.57 200.973 509.786 200.741 510.064 200.576C510.346 200.411 510.682 200.328 511.072 200.328C511.541 200.328 511.914 200.453 512.192 200.704C512.469 200.949 512.629 201.307 512.672 201.776H511.992ZM510.968 202.952C510.6 202.952 510.312 203.075 510.104 203.32C509.896 203.56 509.792 203.864 509.792 204.232C509.792 204.595 509.896 204.896 510.104 205.136C510.317 205.376 510.605 205.496 510.968 205.496C511.32 205.496 511.597 205.376 511.8 205.136C512.008 204.891 512.112 204.592 512.112 204.24C512.112 203.867 512.013 203.56 511.816 203.32C511.624 203.075 511.341 202.952 510.968 202.952ZM517.197 201.008C516.621 201.573 516.128 202.328 515.717 203.272C515.306 204.211 515.074 205.12 515.021 206H514.261C514.325 205.077 514.557 204.189 514.957 203.336C515.362 202.483 515.877 201.725 516.501 201.064H513.525V200.424H517.197V201.008ZM518.81 201.8C518.81 202.093 518.904 202.32 519.09 202.48C519.282 202.635 519.525 202.712 519.818 202.712C520.096 202.712 520.32 202.632 520.49 202.472C520.666 202.307 520.754 202.083 520.754 201.8C520.754 201.523 520.666 201.309 520.49 201.16C520.32 201.005 520.09 200.928 519.802 200.928C519.52 200.928 519.282 201.005 519.09 201.16C518.904 201.315 518.81 201.528 518.81 201.8ZM518.09 201.776C518.09 201.333 518.253 200.981 518.578 200.72C518.904 200.459 519.296 200.328 519.754 200.328C520.33 200.328 520.76 200.469 521.042 200.752C521.33 201.029 521.474 201.371 521.474 201.776C521.474 202.032 521.402 202.267 521.258 202.48C521.12 202.688 520.93 202.845 520.69 202.952C521.362 203.165 521.698 203.637 521.698 204.368C521.698 204.907 521.52 205.328 521.162 205.632C520.81 205.936 520.362 206.088 519.818 206.088C519.248 206.088 518.784 205.941 518.426 205.648C518.069 205.355 517.89 204.928 517.89 204.368C517.89 204.032 517.976 203.741 518.146 203.496C518.317 203.245 518.562 203.064 518.882 202.952C518.642 202.856 518.45 202.701 518.306 202.488C518.162 202.269 518.09 202.032 518.09 201.776ZM518.61 204.4C518.61 204.736 518.722 205.003 518.946 205.2C519.17 205.397 519.461 205.496 519.818 205.496C520.154 205.496 520.432 205.392 520.65 205.184C520.869 204.976 520.978 204.712 520.978 204.392C520.978 204.088 520.864 203.832 520.634 203.624C520.405 203.416 520.13 203.312 519.81 203.312C519.469 203.312 519.184 203.413 518.954 203.616C518.725 203.813 518.61 204.075 518.61 204.4ZM523.088 204.632C523.114 204.899 523.224 205.109 523.416 205.264C523.613 205.419 523.85 205.496 524.128 205.496C524.944 205.496 525.37 204.765 525.408 203.304L525.392 203.288C525.264 203.528 525.082 203.72 524.848 203.864C524.613 204.003 524.357 204.072 524.08 204.072C523.509 204.072 523.066 203.899 522.752 203.552C522.442 203.205 522.288 202.747 522.288 202.176C522.288 201.632 522.461 201.189 522.808 200.848C523.154 200.501 523.602 200.328 524.152 200.328C525.448 200.328 526.096 201.232 526.096 203.04C526.096 205.072 525.44 206.088 524.128 206.088C523.637 206.088 523.237 205.965 522.928 205.72C522.624 205.475 522.45 205.112 522.408 204.632H523.088ZM525.288 202.224C525.288 201.856 525.184 201.549 524.976 201.304C524.768 201.053 524.482 200.928 524.12 200.928C523.741 200.928 523.461 201.056 523.28 201.312C523.098 201.568 523.008 201.888 523.008 202.272C523.008 202.592 523.114 202.872 523.328 203.112C523.541 203.352 523.808 203.472 524.128 203.472C524.474 203.472 524.754 203.352 524.968 203.112C525.181 202.867 525.288 202.571 525.288 202.224ZM527.517 203.208C527.517 203.405 527.52 203.563 527.525 203.68C527.53 203.797 527.541 203.96 527.557 204.168C527.578 204.376 527.613 204.547 527.661 204.68C527.714 204.808 527.781 204.941 527.861 205.08C527.946 205.219 528.058 205.323 528.197 205.392C528.336 205.461 528.498 205.496 528.685 205.496C528.872 205.496 529.034 205.461 529.173 205.392C529.312 205.323 529.421 205.219 529.501 205.08C529.586 204.941 529.653 204.808 529.701 204.68C529.754 204.547 529.789 204.376 529.805 204.168C529.826 203.96 529.84 203.797 529.845 203.68C529.85 203.563 529.853 203.405 529.853 203.208C529.853 203.016 529.85 202.861 529.845 202.744C529.84 202.621 529.826 202.459 529.805 202.256C529.789 202.048 529.754 201.877 529.701 201.744C529.653 201.611 529.586 201.477 529.501 201.344C529.421 201.205 529.312 201.101 529.173 201.032C529.034 200.963 528.872 200.928 528.685 200.928C528.498 200.928 528.336 200.963 528.197 201.032C528.058 201.101 527.946 201.205 527.861 201.344C527.781 201.477 527.714 201.611 527.661 201.744C527.613 201.877 527.578 202.048 527.557 202.256C527.541 202.459 527.53 202.621 527.525 202.744C527.52 202.861 527.517 203.016 527.517 203.208ZM526.813 203.872C526.802 203.685 526.797 203.467 526.797 203.216C526.797 202.965 526.802 202.749 526.813 202.568C526.829 202.381 526.856 202.165 526.893 201.92C526.93 201.675 526.992 201.467 527.077 201.296C527.162 201.125 527.272 200.963 527.405 200.808C527.538 200.648 527.712 200.528 527.925 200.448C528.144 200.368 528.397 200.328 528.685 200.328C528.973 200.328 529.224 200.368 529.437 200.448C529.656 200.528 529.832 200.648 529.965 200.808C530.098 200.963 530.208 201.125 530.293 201.296C530.378 201.467 530.44 201.675 530.477 201.92C530.514 202.165 530.538 202.381 530.549 202.568C530.565 202.749 530.573 202.965 530.573 203.216C530.573 203.467 530.565 203.685 530.549 203.872C530.538 204.059 530.514 204.275 530.477 204.52C530.44 204.76 530.378 204.965 530.293 205.136C530.208 205.301 530.098 205.461 529.965 205.616C529.832 205.771 529.656 205.888 529.437 205.968C529.224 206.048 528.973 206.088 528.685 206.088C528.397 206.088 528.144 206.048 527.925 205.968C527.712 205.888 527.538 205.771 527.405 205.616C527.272 205.461 527.162 205.301 527.077 205.136C526.992 204.965 526.93 204.76 526.893 204.52C526.856 204.275 526.829 204.059 526.813 203.872ZM533.754 206H533.074V201.936H531.602V201.392C532.568 201.392 533.112 201.037 533.234 200.328H533.754V206Z" fill="black"/>
<rect x="438" y="186" width="105" height="25" stroke="black"/>
<rect x="29" y="211" width="19" height="13" stroke="black"/>
<rect x="48" y="211" width="59" height="13" stroke="black"/>
<rect x="107" y="211" width="42" height="13" stroke="black"/>
<rect x="149" y="211" width="59" height="13" stroke="black"/>
<rect x="208" y="211" width="33" height="13" stroke="black"/>
<rect x="241" y="211" width="42" height="13" stroke="black"/>
<rect x="283" y="211" width="30" height="13" stroke="black"/>
<rect x="313" y="211" width="88" height="13" stroke="black"/>
<rect x="401" y="211" width="37" height="13" stroke="black"/>
<rect x="438" y="211" width="105" height="13" stroke="black"/>
<rect x="29" y="224" width="19" height="13" stroke="black"/>
<rect x="48" y="224" width="59" height="13" stroke="black"/>
<rect x="107" y="224" width="42" height="13" stroke="black"/>
<rect x="149" y="224" width="59" height="13" stroke="black"/>
<rect x="208" y="224" width="33" height="13" stroke="black"/>
<rect x="241" y="224" width="42" height="13" stroke="black"/>
<rect x="283" y="224" width="30" height="13" stroke="black"/>
<rect x="313" y="224" width="88" height="13" stroke="black"/>
<rect x="401" y="224" width="37" height="13" stroke="black"/>
<rect x="438" y="224" width="105" height="13" stroke="black"/>
<rect x="29" y="237" width="19" height="13" stroke="black"/>
<rect x="48" y="237" width="59" height="13" stroke="black"/>
<rect x="107" y="237" width="42" height="13" stroke="black"/>
<rect x="149" y="237" width="59" height="13" stroke="black"/>
<rect x="208" y="237" width="33" height="13" stroke="black"/>
<rect x="241" y="237" width="42" height="13" stroke="black"/>
<rect x="283" y="237" width="30" height="13" stroke="black"/>
<rect x="313" y="237" width="88" height="13" stroke="black"/>
<rect x="401" y="237" width="37" height="13" stroke="black"/>
<rect x="438" y="237" width="105" height="13" stroke="black"/>
<rect x="29" y="250" width="19" height="13" stroke="black"/>
<rect x="48" y="250" width="59" height="13" stroke="black"/>
<rect x="107" y="250" width="42" height="13" stroke="black"/>
<rect x="149" y="250" width="59" height="13" stroke="black"/>
<rect x="208" y="250" width="33" height="13" stroke="black"/>
<rect x="241" y="250" width="42" height="13" stroke="black"/>
<rect x="283" y="250" width="30" height="13" stroke="black"/>
<rect x="313" y="250" width="88" height="13" stroke="black"/>
<rect x="401" y="250" width="37" height="13" stroke="black"/>
<rect x="438" y="250" width="105" height="13" stroke="black"/>
<rect x="29" y="263" width="19" height="13" stroke="black"/>
<rect x="48" y="263" width="59" height="13" stroke="black"/>
<rect x="107" y="263" width="42" height="13" stroke="black"/>
<rect x="149" y="263" width="59" height="13" stroke="black"/>
<rect x="208" y="263" width="33" height="13" stroke="black"/>
<rect x="241" y="263" width="42" height="13" stroke="black"/>
<rect x="283" y="263" width="30" height="13" stroke="black"/>
<rect x="313" y="263" width="88" height="13" stroke="black"/>
<rect x="401" y="263" width="37" height="13" stroke="black"/>
<rect x="438" y="263" width="105" height="13" stroke="black"/>
<rect x="29" y="276" width="19" height="13" stroke="black"/>
<rect x="48" y="276" width="59" height="13" stroke="black"/>
<rect x="107" y="276" width="42" height="13" stroke="black"/>
<rect x="149" y="276" width="59" height="13" stroke="black"/>
<rect x="208" y="276" width="33" height="13" stroke="black"/>
<rect x="241" y="276" width="42" height="13" stroke="black"/>
<rect x="283" y="276" width="30" height="13" stroke="black"/>
<rect x="313" y="276" width="88" height="13" stroke="black"/>
<rect x="401" y="276" width="37" height="13" stroke="black"/>
<rect x="438" y="276" width="105" height="13" stroke="black"/>
<rect x="29" y="289" width="19" height="13" stroke="black"/>
<rect x="48" y="289" width="59" height="13" stroke="black"/>
<rect x="107" y="289" width="42" height="13" stroke="black"/>
<rect x="149" y="289" width="59" height="13" stroke="black"/>
<rect x="208" y="289" width="33" height="13" stroke="black"/>
<rect x="241" y="289" width="42" height="13" stroke="black"/>
<rect x="283" y="289" width="30" height="13" stroke="black"/>
<rect x="313" y="289" width="88" height="13" stroke="black"/>
<rect x="401" y="289" width="37" height="13" stroke="black"/>
<rect x="438" y="289" width="105" height="13" stroke="black"/>
<rect x="210" y="72" width="152" height="22" fill="#D9D9D9"/>
<rect x="210" y="100" width="152" height="7" fill="#D9D9D9"/>
<rect x="85" y="24" width="46" height="10" fill="#D9D9D9"/>
<rect x="70" y="37" width="76" height="10" fill="#D9D9D9"/>
<rect x="93" y="51" width="30" height="3" fill="#D9D9D9"/>
<rect x="442" y="37" width="46" height="10" fill="#D9D9D9"/>
<rect x="427" y="24" width="76" height="10" fill="#D9D9D9"/>
<rect x="450" y="51" width="30" height="3" fill="#D9D9D9"/>
<rect width="514" height="116" transform="translate(29 186)" fill="#0EA5E9" fill-opacity="0.26"/>
<rect x="29" y="186" width="514" height="116" stroke="black" stroke-width="2"/>
</g>
<defs>
<clipPath id="clip0_3_350">
<rect width="572" height="380" fill="white"/>
</clipPath>
</defs>
</svg>
