<svg width="340" height="380" viewBox="0 0 340 380" fill="none" xmlns="http://www.w3.org/2000/svg">
<rect width="340" height="380" fill="#1E1E1E"/>
<g clip-path="url(#clip0_0_1)">
<rect width="340" height="380" fill="white"/>
<rect x="45" y="118" width="278" height="68" rx="9" fill="white" stroke="black" stroke-width="2" stroke-dasharray="6 6"/>
<rect x="45" y="200" width="182" height="53" rx="9" fill="white" stroke="black" stroke-width="2"/>
<rect x="236" y="199" width="88" height="55" rx="10" fill="black"/>
<path d="M165.793 108.707C166.183 109.098 166.817 109.098 167.207 108.707L173.571 102.343C173.962 101.953 173.962 101.319 173.571 100.929C173.181 100.538 172.547 100.538 172.157 100.929L166.5 106.586L160.843 100.929C160.453 100.538 159.819 100.538 159.429 100.929C159.038 101.319 159.038 101.953 159.429 102.343L165.793 108.707ZM83.7071 264.793C83.3166 264.402 82.6834 264.402 82.2929 264.793L75.9289 271.157C75.5384 271.547 75.5384 272.181 75.9289 272.571C76.3195 272.962 76.9526 272.962 77.3431 272.571L83 266.914L88.6569 272.571C89.0474 272.962 89.6805 272.962 90.0711 272.571C90.4616 272.181 90.4616 271.547 90.0711 271.157L83.7071 264.793ZM167.5 108C167.5 83.9189 174.956 58.6212 185.703 42.7481C191.083 34.8015 197.199 29.3471 203.49 27.4659C209.682 25.6141 216.251 27.1653 222.793 33.7071L224.207 32.2929C217.249 25.3347 209.943 23.4484 202.917 25.5497C195.988 27.6216 189.542 33.511 184.047 41.6269C173.044 57.8788 165.5 83.5811 165.5 108H167.5ZM222.793 33.7071C236.426 47.3405 247.936 51.1423 256.864 50.6862C265.762 50.2316 271.857 45.5575 274.707 42.7071L273.293 41.2929C270.643 43.9425 264.988 48.2684 256.761 48.6888C248.564 49.1077 237.574 45.6595 224.207 32.2929L222.793 33.7071ZM82 265.5C82 277.503 78.1562 285.167 72.4712 290.514C66.7348 295.909 59.0444 299.025 51.1737 301.742C43.3885 304.43 35.3434 306.746 29.3085 310.569C26.2637 312.499 23.6748 314.841 21.8512 317.859C20.0234 320.883 19 324.527 19 329H21C21 324.848 21.9453 321.57 23.5629 318.893C25.1846 316.21 27.5176 314.072 30.379 312.259C36.1566 308.598 43.8615 306.383 51.8263 303.633C59.7056 300.913 67.7652 297.685 73.8413 291.971C79.9688 286.208 84 277.997 84 265.5H82ZM268.5 265.5C268.5 284.08 271.508 296.795 276.459 304.896C281.449 313.062 288.393 316.5 296 316.5V314.5C289.107 314.5 282.801 311.438 278.166 303.854C273.492 296.205 270.5 283.92 270.5 265.5H268.5Z" fill="black"/>
<path d="M297.088 43H293.008V18.616H284.176V15.352C289.968 15.352 293.232 13.224 293.968 8.968H297.088V43Z" fill="black"/>
<path d="M8.112 350.016C7.92 346.496 8.8 343.616 10.752 341.376C12.736 339.104 15.504 337.968 19.056 337.968C22.128 337.968 24.672 338.832 26.688 340.56C28.704 342.288 29.712 344.688 29.712 347.76C29.712 349.2 29.488 350.512 29.04 351.696C28.624 352.88 27.968 353.952 27.072 354.912C26.208 355.84 25.376 356.624 24.576 357.264C23.776 357.904 22.736 358.624 21.456 359.424C21.296 359.52 20.704 359.872 19.68 360.48C18.688 361.056 18.064 361.44 17.808 361.632C17.552 361.792 17.024 362.144 16.224 362.688C15.424 363.2 14.88 363.616 14.592 363.936C14.304 364.256 13.92 364.688 13.44 365.232C12.96 365.744 12.608 366.256 12.384 366.768C12.16 367.28 12 367.824 11.904 368.4H29.376V372H7.152C7.312 370.08 7.648 368.384 8.16 366.912C8.704 365.408 9.456 364.128 10.416 363.072C11.376 361.984 12.304 361.088 13.2 360.384C14.128 359.68 15.296 358.912 16.704 358.08C20 356.032 22.272 354.336 23.52 352.992C24.768 351.648 25.392 349.888 25.392 347.712C25.392 345.888 24.752 344.416 23.472 343.296C22.224 342.144 20.672 341.568 18.816 341.568C16.608 341.568 14.928 342.416 13.776 344.112C12.656 345.776 12.128 347.744 12.192 350.016H8.112Z" fill="black"/>
<path d="M317.464 316.56C317.56 316.592 317.704 316.608 317.896 316.608H318.376H319.24C321.064 316.608 322.6 316.128 323.848 315.168C325.096 314.176 325.72 312.8 325.72 311.04C325.72 309.28 325.16 307.936 324.04 307.008C322.92 306.048 321.464 305.568 319.672 305.568C317.56 305.568 315.96 306.272 314.872 307.68C313.784 309.056 313.24 310.816 313.24 312.96H309.16C309.288 309.6 310.248 306.928 312.04 304.944C313.832 302.96 316.376 301.968 319.672 301.968C322.776 301.968 325.272 302.736 327.16 304.272C329.08 305.808 330.04 308.08 330.04 311.088C330.04 312.592 329.608 313.952 328.744 315.168C327.88 316.352 326.744 317.248 325.336 317.856V317.952C327.352 318.4 328.872 319.36 329.896 320.832C330.952 322.304 331.48 324.096 331.48 326.208C331.48 329.472 330.36 332.016 328.12 333.84C325.912 335.632 323.128 336.528 319.768 336.528C316.248 336.528 313.464 335.568 311.416 333.648C309.368 331.696 308.376 328.976 308.44 325.488H312.52C312.584 327.76 313.24 329.584 314.488 330.96C315.736 332.304 317.496 332.976 319.768 332.976C321.848 332.976 323.592 332.384 325 331.2C326.44 329.984 327.16 328.384 327.16 326.4C327.16 324.352 326.472 322.752 325.096 321.6C323.752 320.448 322.024 319.872 319.912 319.872C319.048 319.872 318.232 319.92 317.464 320.016V316.56Z" fill="black"/>
</g>
<defs>
<clipPath id="clip0_0_1">
<rect width="340" height="380" fill="white"/>
</clipPath>
</defs>
</svg>
